<svg width="1176" height="917" viewBox="0 0 1176 917" fill="none" xmlns="http://www.w3.org/2000/svg">
<path d="M1060 829L116 829L116 87L1060 87L1060 829Z" fill="#E2CD97"/>
<rect x="4.27274" width="159.01" height="159.01" transform="matrix(0.712124 -0.702054 0.712124 0.702054 942.215 347.01)" fill="#E2CD97" stroke="#5077A5" stroke-width="6"/>
<path d="M1058.49 456.573L1152.58 326.076L1058.49 450.554L1123.09 302.002L1058.49 453.564L1088.26 265.069L1058.49 443.715V437.97M1058.49 231.692V437.97M1058.49 437.97V459.856" stroke="#5077A5" stroke-width="6"/>
<path d="M1058.49 456.573L963.228 326.076L1058.49 450.554L993.087 302.002L1058.49 453.564L1028.35 265.069L1058.49 443.715V437.97M1058.49 231.692V437.97M1058.49 437.97V459.856" stroke="#5077A5" stroke-width="6"/>
<rect x="4.27274" width="159.01" height="159.01" transform="matrix(0.712124 -0.702054 0.712124 0.702054 942.215 803.338)" fill="#E2CD97" stroke="#5077A5" stroke-width="6"/>
<path d="M1058.49 912.901L1152.58 782.404L1058.49 906.882L1123.09 758.33L1058.49 909.892L1088.26 721.397L1058.49 900.043V894.298M1058.49 688.02V894.298M1058.49 894.298V916.184" stroke="#5077A5" stroke-width="6"/>
<path d="M1058.49 912.901L963.228 782.404L1058.49 906.882L993.087 758.33L1058.49 909.892L1028.35 721.397L1058.49 900.043V894.298M1058.49 688.02V894.298M1058.49 894.298V916.184" stroke="#5077A5" stroke-width="6"/>
<rect x="4.27274" width="159.01" height="159.01" transform="matrix(0.712124 -0.702054 0.712124 0.702054 706.891 347.01)" fill="#E2CD97" stroke="#5077A5" stroke-width="6"/>
<path d="M823.169 456.573L917.257 326.076L823.169 450.554L887.767 302.002L823.169 453.564L852.94 265.069L823.169 443.715V437.97M823.169 231.692V437.97M823.169 437.97V459.856" stroke="#5077A5" stroke-width="6"/>
<path d="M823.169 456.573L727.905 326.076L823.169 450.554L757.764 302.002L823.169 453.564L793.026 265.069L823.169 443.715V437.97M823.169 231.692V437.97M823.169 437.97V459.856" stroke="#5077A5" stroke-width="6"/>
<rect x="4.27274" width="159.01" height="159.01" transform="matrix(0.712124 -0.702054 0.712124 0.702054 706.891 803.338)" fill="#E2CD97" stroke="#5077A5" stroke-width="6"/>
<path d="M823.169 912.901L917.257 782.404L823.169 906.882L887.767 758.33L823.169 909.892L852.94 721.397L823.169 900.043V894.298M823.169 688.02V894.298M823.169 894.298V916.184" stroke="#5077A5" stroke-width="6"/>
<path d="M823.169 912.901L727.905 782.404L823.169 906.882L757.764 758.33L823.169 909.892L793.026 721.397L823.169 900.043V894.298M823.169 688.02V894.298M823.169 894.298V916.184" stroke="#5077A5" stroke-width="6"/>
<rect x="4.27274" width="159.01" height="159.01" transform="matrix(0.712124 -0.702054 0.712124 0.702054 471.671 803.338)" fill="#E2CD97" stroke="#5077A5" stroke-width="6"/>
<path d="M587.949 912.901L682.037 782.404L587.949 906.882L652.547 758.33L587.949 909.892L617.72 721.397L587.949 900.043V894.298M587.949 688.02V894.298M587.949 894.298V916.184" stroke="#5077A5" stroke-width="6"/>
<path d="M587.949 912.901L492.684 782.404L587.949 906.882L522.543 758.33L587.949 909.892L557.805 721.397L587.949 900.043V894.298M587.949 688.02V894.298M587.949 894.298V916.184" stroke="#5077A5" stroke-width="6"/>
<rect x="4.27274" width="159.01" height="159.01" transform="matrix(0.712124 -0.702054 0.712124 0.702054 471.671 347.01)" fill="#E2CD97" stroke="#5077A5" stroke-width="6"/>
<path d="M587.949 456.573L682.037 326.076L587.949 450.554L652.547 302.002L587.949 453.564L617.72 265.069L587.949 443.715V437.97M587.949 231.692V437.97M587.949 437.97V459.856" stroke="#5077A5" stroke-width="6"/>
<path d="M587.949 456.573L492.684 326.076L587.949 450.554L522.543 302.002L587.949 453.564L557.805 265.069L587.949 443.715V437.97M587.949 231.692V437.97M587.949 437.97V459.856" stroke="#5077A5" stroke-width="6"/>
<rect x="4.27274" width="159.01" height="159.01" transform="matrix(0.712124 -0.702054 0.712124 0.702054 236.45 803.338)" fill="#E2CD97" stroke="#5077A5" stroke-width="6"/>
<path d="M352.728 912.901L446.816 782.404L352.728 906.882L417.326 758.33L352.728 909.892L382.499 721.397L352.728 900.043V894.298M352.728 688.02V894.298M352.728 894.298V916.184" stroke="#5077A5" stroke-width="6"/>
<path d="M352.728 912.901L257.464 782.404L352.728 906.882L287.323 758.33L352.728 909.892L322.585 721.397L352.728 900.043V894.298M352.728 688.02V894.298M352.728 894.298V916.184" stroke="#5077A5" stroke-width="6"/>
<rect x="4.27274" width="159.01" height="159.01" transform="matrix(0.712124 -0.702054 0.712124 0.702054 236.45 347.01)" fill="#E2CD97" stroke="#5077A5" stroke-width="6"/>
<path d="M352.728 456.573L446.816 326.076L352.728 450.554L417.326 302.002L352.728 453.564L382.499 265.069L352.728 443.715V437.97M352.728 231.692V437.97M352.728 437.97V459.856" stroke="#5077A5" stroke-width="6"/>
<path d="M352.728 456.573L257.464 326.076L352.728 450.554L287.323 302.002L352.728 453.564L322.585 265.069L352.728 443.715V437.97M352.728 231.692V437.97M352.728 437.97V459.856" stroke="#5077A5" stroke-width="6"/>
<rect x="4.27274" width="159.01" height="159.01" transform="matrix(0.712124 -0.702054 0.712124 0.702054 1.23002 803.338)" fill="#E2CD97" stroke="#5077A5" stroke-width="6"/>
<path d="M117.508 912.901L211.596 782.404L117.508 906.882L182.106 758.33L117.508 909.892L147.279 721.397L117.508 900.043V894.298M117.508 688.02V894.298M117.508 894.298V916.184" stroke="#5077A5" stroke-width="6"/>
<path d="M117.508 912.901L22.2435 782.404L117.508 906.882L52.1024 758.33L117.508 909.892L87.3644 721.397L117.508 900.043V894.298M117.508 688.02V894.298M117.508 894.298V916.184" stroke="#5077A5" stroke-width="6"/>
<rect x="4.27274" width="159.01" height="159.01" transform="matrix(0.712124 -0.702054 0.712124 0.702054 1.23002 347.01)" fill="#E2CD97" stroke="#5077A5" stroke-width="6"/>
<path d="M117.508 456.573L211.596 326.076L117.508 450.554L182.106 302.002L117.508 453.564L147.279 265.069L117.508 443.715V437.97M117.508 231.692V437.97M117.508 437.97V459.856" stroke="#5077A5" stroke-width="6"/>
<path d="M117.508 456.573L22.2435 326.076L117.508 450.554L52.1024 302.002L117.508 453.564L87.3644 265.069L117.508 443.715V437.97M117.508 231.692V437.97M117.508 437.97V459.856" stroke="#5077A5" stroke-width="6"/>
<rect x="4.27274" width="159.01" height="159.01" transform="matrix(0.712124 -0.702054 0.712124 0.702054 1.23002 575.174)" fill="#E2CD97" stroke="#5077A5" stroke-width="6"/>
<path d="M117.508 684.737L211.596 554.241L117.508 678.718L182.106 530.166L117.508 681.728L147.279 493.233L117.508 671.879V666.134M117.508 459.856V666.134M117.508 666.134V688.02" stroke="#5077A5" stroke-width="6"/>
<path d="M117.508 684.737L22.2435 554.241L117.508 678.718L52.1024 530.166L117.508 681.728L87.3644 493.233L117.508 671.879V666.134M117.508 459.856V666.134M117.508 666.134V688.02" stroke="#5077A5" stroke-width="6"/>
<rect x="4.27274" width="159.01" height="159.01" transform="matrix(0.712124 -0.702054 0.712124 0.702054 1.23002 118.846)" fill="#E2CD97" stroke="#5077A5" stroke-width="6"/>
<path d="M117.508 228.409L211.596 97.9127L117.508 222.391L182.106 73.8378L117.508 225.4L147.279 36.9048L117.508 215.551V209.806M117.508 3.52832V209.806M117.508 209.806V231.692" stroke="#5077A5" stroke-width="6"/>
<path d="M117.508 228.409L22.2435 97.9127L117.508 222.391L52.1024 73.8378L117.508 225.4L87.3644 36.9048L117.508 215.551V209.806M117.508 3.52832V209.806M117.508 209.806V231.692" stroke="#5077A5" stroke-width="6"/>
<rect x="4.27274" width="159.01" height="159.01" transform="matrix(0.712124 -0.702054 0.712124 0.702054 236.45 575.174)" fill="#E2CD97" stroke="#5077A5" stroke-width="6"/>
<path d="M352.728 684.737L446.816 554.241L352.728 678.718L417.326 530.166L352.728 681.728L382.499 493.233L352.728 671.879V666.134M352.728 459.856V666.134M352.728 666.134V688.02" stroke="#5077A5" stroke-width="6"/>
<path d="M352.728 684.737L257.464 554.241L352.728 678.718L287.323 530.166L352.728 681.728L322.585 493.233L352.728 671.879V666.134M352.728 459.856V666.134M352.728 666.134V688.02" stroke="#5077A5" stroke-width="6"/>
<rect x="4.27274" width="159.01" height="159.01" transform="matrix(0.712124 -0.702054 0.712124 0.702054 236.45 118.846)" fill="#E2CD97" stroke="#5077A5" stroke-width="6"/>
<path d="M352.728 228.409L446.816 97.9127L352.728 222.391L417.326 73.8378L352.728 225.4L382.499 36.9048L352.728 215.551V209.806M352.728 3.52832V209.806M352.728 209.806V231.692" stroke="#5077A5" stroke-width="6"/>
<path d="M352.728 228.409L257.464 97.9127L352.728 222.391L287.323 73.8378L352.728 225.4L322.585 36.9048L352.728 215.551V209.806M352.728 3.52832V209.806M352.728 209.806V231.692" stroke="#5077A5" stroke-width="6"/>
<rect x="4.27274" width="159.01" height="159.01" transform="matrix(0.712124 -0.702054 0.712124 0.702054 471.671 575.174)" fill="#E2CD97" stroke="#5077A5" stroke-width="6"/>
<path d="M587.949 684.737L682.037 554.241L587.949 678.718L652.547 530.166L587.949 681.728L617.72 493.233L587.949 671.879V666.134M587.949 459.856V666.134M587.949 666.134V688.02" stroke="#5077A5" stroke-width="6"/>
<path d="M587.949 684.737L492.684 554.241L587.949 678.718L522.543 530.166L587.949 681.728L557.805 493.233L587.949 671.879V666.134M587.949 459.856V666.134M587.949 666.134V688.02" stroke="#5077A5" stroke-width="6"/>
<rect x="4.27274" width="159.01" height="159.01" transform="matrix(0.712124 -0.702054 0.712124 0.702054 471.671 118.846)" fill="#E2CD97" stroke="#5077A5" stroke-width="6"/>
<path d="M587.949 228.409L682.037 97.9127L587.949 222.391L652.547 73.8378L587.949 225.4L617.72 36.9048L587.949 215.551V209.806M587.949 3.52832V209.806M587.949 209.806V231.692" stroke="#5077A5" stroke-width="6"/>
<path d="M587.949 228.409L492.684 97.9127L587.949 222.391L522.543 73.8378L587.949 225.4L557.805 36.9048L587.949 215.551V209.806M587.949 3.52832V209.806M587.949 209.806V231.692" stroke="#5077A5" stroke-width="6"/>
<rect x="4.27274" width="159.01" height="159.01" transform="matrix(0.712124 -0.702054 0.712124 0.702054 706.891 576.35)" fill="#E2CD97" stroke="#5077A5" stroke-width="6"/>
<path d="M823.169 685.913L917.257 555.417L823.169 679.895L887.767 531.342L823.169 682.904L852.94 494.409L823.169 673.055V667.31M823.169 461.032V667.31M823.169 667.31V689.196" stroke="#5077A5" stroke-width="6"/>
<path d="M823.169 685.913L727.905 555.417L823.169 679.895L757.764 531.342L823.169 682.904L793.026 494.409L823.169 673.055V667.31M823.169 461.032V667.31M823.169 667.31V689.196" stroke="#5077A5" stroke-width="6"/>
<rect x="4.27274" width="159.01" height="159.01" transform="matrix(0.712124 -0.702054 0.712124 0.702054 706.891 120.022)" fill="#E2CD97" stroke="#5077A5" stroke-width="6"/>
<path d="M823.169 229.585L917.257 99.0887L823.169 223.567L887.767 75.0139L823.169 226.576L852.94 38.0808L823.169 216.727V210.982M823.169 4.70435V210.982M823.169 210.982V232.868" stroke="#5077A5" stroke-width="6"/>
<path d="M823.169 229.585L727.905 99.0887L823.169 223.567L757.764 75.0139L823.169 226.576L793.026 38.0808L823.169 216.727V210.982M823.169 4.70435V210.982M823.169 210.982V232.868" stroke="#5077A5" stroke-width="6"/>
<rect x="4.27274" width="159.01" height="159.01" transform="matrix(0.712124 -0.702054 0.712124 0.702054 942.112 578.702)" fill="#E2CD97" stroke="#5077A5" stroke-width="6"/>
<path d="M1058.39 688.266L1152.48 557.769L1058.39 682.247L1122.99 533.694L1058.39 685.256L1088.16 496.761L1058.39 675.407V669.662M1058.39 463.385V669.662M1058.39 669.662V691.548" stroke="#5077A5" stroke-width="6"/>
<path d="M1058.39 688.266L963.126 557.769L1058.39 682.247L992.985 533.694L1058.39 685.256L1028.25 496.761L1058.39 675.407V669.662M1058.39 463.385V669.662M1058.39 669.662V691.548" stroke="#5077A5" stroke-width="6"/>
<rect x="4.27274" width="159.01" height="159.01" transform="matrix(0.712124 -0.702054 0.712124 0.702054 942.112 122.374)" fill="#E2CD97" stroke="#5077A5" stroke-width="6"/>
<path d="M1058.39 231.938L1152.48 101.441L1058.39 225.919L1122.99 77.3661L1058.39 228.928L1088.16 40.4331L1058.39 219.079V213.334M1058.39 7.05664V213.334M1058.39 213.334V235.221" stroke="#5077A5" stroke-width="6"/>
<path d="M1058.39 231.938L963.126 101.441L1058.39 225.919L992.985 77.3661L1058.39 228.928L1028.25 40.4331L1058.39 219.079V213.334M1058.39 7.05664V213.334M1058.39 213.334V235.221" stroke="#5077A5" stroke-width="6"/>
</svg>
