<svg width="1845" height="1349" viewBox="0 0 1845 1349" fill="none" xmlns="http://www.w3.org/2000/svg">
<path d="M1845 1210L1.52588e-05 1210L1.52588e-05 49L1845 49L1845 1210Z" fill="#BC6666"/>
<ellipse cx="1701.5" cy="1201" rx="43" ry="42.5" transform="rotate(-90 1701.5 1201)" fill="#BE9961"/>
<ellipse cx="1701.5" cy="1201" rx="33" ry="33.5" transform="rotate(-90 1701.5 1201)" fill="#BC6666"/>
<circle cx="1675.5" cy="160.5" r="79.5" transform="rotate(-90 1675.5 160.5)" fill="#BE9961"/>
<circle cx="1675.5" cy="952.5" r="79.5" transform="rotate(-90 1675.5 952.5)" fill="#BE9961"/>
<ellipse cx="1677.5" cy="159.5" rx="71.5" ry="69.5" transform="rotate(-90 1677.5 159.5)" fill="#BC6666"/>
<circle cx="1675.5" cy="793.5" r="79.5" transform="rotate(-90 1675.5 793.5)" fill="#BE9961"/>
<ellipse cx="1676.5" cy="793.5" rx="70.5" ry="71.5" transform="rotate(-90 1676.5 793.5)" fill="#BC6666"/>
<circle cx="1676.5" cy="317.5" r="79.5" transform="rotate(-90 1676.5 317.5)" fill="#BE9961"/>
<ellipse cx="1677.5" cy="952.5" rx="70.5" ry="71.5" transform="rotate(-90 1677.5 952.5)" fill="#BC6666"/>
<ellipse cx="1678.5" cy="318.5" rx="71.5" ry="69.5" transform="rotate(-90 1678.5 318.5)" fill="#BC6666"/>
<ellipse cx="1679" cy="476.5" rx="79.5" ry="79" transform="rotate(-90 1679 476.5)" fill="#BE9961"/>
<ellipse cx="1679.5" cy="1110.5" rx="78.5" ry="79.5" transform="rotate(-90 1679.5 1110.5)" fill="#BE9961"/>
<ellipse cx="1680" cy="476" rx="70" ry="71" transform="rotate(-90 1680 476)" fill="#BC6666"/>
<ellipse cx="1679" cy="1110" rx="71" ry="70" transform="rotate(-90 1679 1110)" fill="#BC6666"/>
<ellipse cx="1679.5" cy="635" rx="79" ry="79.5" transform="rotate(-90 1679.5 635)" fill="#BE9961"/>
<circle cx="1679.5" cy="1269.5" r="79.5" transform="rotate(-90 1679.5 1269.5)" fill="#BE9961"/>
<ellipse cx="1681" cy="635" rx="70" ry="71" transform="rotate(-90 1681 635)" fill="#BC6666"/>
<circle cx="1680" cy="1270" r="70" transform="rotate(-90 1680 1270)" fill="#BC6666"/>
<ellipse cx="1677.5" cy="161" rx="63" ry="62.5" transform="rotate(-90 1677.5 161)" fill="#BE9961"/>
<ellipse cx="1677.5" cy="794" rx="63" ry="62.5" transform="rotate(-90 1677.5 794)" fill="#BE9961"/>
<ellipse cx="1679" cy="477.5" rx="61.5" ry="63" transform="rotate(-90 1679 477.5)" fill="#BE9961"/>
<ellipse cx="1678.5" cy="1112.5" rx="61.5" ry="62.5" transform="rotate(-90 1678.5 1112.5)" fill="#BE9961"/>
<ellipse cx="1679.5" cy="636.5" rx="61.5" ry="62.5" transform="rotate(-90 1679.5 636.5)" fill="#BE9961"/>
<ellipse cx="1679.5" cy="1268.5" rx="61.5" ry="62.5" transform="rotate(-90 1679.5 1268.5)" fill="#BE9961"/>
<circle cx="1676.5" cy="318.5" r="61.5" transform="rotate(-90 1676.5 318.5)" fill="#BE9961"/>
<circle cx="1682" cy="635" r="53" transform="rotate(-90 1682 635)" fill="#BC6666"/>
<ellipse cx="1680.5" cy="1270.5" rx="53.5" ry="54.5" transform="rotate(-90 1680.5 1270.5)" fill="#BC6666"/>
<ellipse cx="1681.5" cy="477.5" rx="54.5" ry="53.5" transform="rotate(-90 1681.5 477.5)" fill="#BC6666"/>
<ellipse cx="1680" cy="1111.5" rx="53.5" ry="55" transform="rotate(-90 1680 1111.5)" fill="#BC6666"/>
<ellipse cx="1681" cy="319.5" rx="53.5" ry="53" transform="rotate(-90 1681 319.5)" fill="#BC6666"/>
<ellipse cx="1676.5" cy="952" rx="63" ry="62.5" transform="rotate(-90 1676.5 952)" fill="#BE9961"/>
<ellipse cx="1679.5" cy="952" rx="53" ry="54.5" transform="rotate(-90 1679.5 952)" fill="#BC6666"/>
<circle cx="1680.5" cy="158.5" r="53.5" transform="rotate(-90 1680.5 158.5)" fill="#BC6666"/>
<ellipse cx="1678.5" cy="794" rx="53" ry="54.5" transform="rotate(-90 1678.5 794)" fill="#BC6666"/>
<circle cx="1679.5" cy="318.5" r="42.5" transform="rotate(-90 1679.5 318.5)" fill="#BE9961"/>
<ellipse cx="1677" cy="953.5" rx="42.5" ry="43" transform="rotate(-90 1677 953.5)" fill="#BE9961"/>
<ellipse cx="1678.5" cy="321" rx="33" ry="34.5" transform="rotate(-90 1678.5 321)" fill="#BC6666"/>
<ellipse cx="1678" cy="953.5" rx="33.5" ry="34" transform="rotate(-90 1678 953.5)" fill="#BC6666"/>
<ellipse cx="1677.5" cy="159.5" rx="42.5" ry="41.5" transform="rotate(-90 1677.5 159.5)" fill="#BE9961"/>
<ellipse cx="1677" cy="792.5" rx="42.5" ry="43" transform="rotate(-90 1677 792.5)" fill="#BE9961"/>
<circle cx="1677.5" cy="158.5" r="34.5" transform="rotate(-90 1677.5 158.5)" fill="#BC6666"/>
<ellipse cx="1677.5" cy="793" rx="33" ry="34.5" transform="rotate(-90 1677.5 793)" fill="#BC6666"/>
<circle cx="1739.5" cy="238.5" r="79.5" transform="rotate(-90 1739.5 238.5)" fill="#BE9961"/>
<circle cx="1739.5" cy="871.5" r="79.5" transform="rotate(-90 1739.5 871.5)" fill="#BE9961"/>
<ellipse cx="1740" cy="237.5" rx="71.5" ry="70" transform="rotate(-90 1740 237.5)" fill="#BC6666"/>
<circle cx="1740" cy="872" r="70" transform="rotate(-90 1740 872)" fill="#BC6666"/>
<ellipse cx="1679" cy="478.5" rx="41.5" ry="41" transform="rotate(-90 1679 478.5)" fill="#BE9961"/>
<ellipse cx="1678" cy="1112.5" rx="42.5" ry="43" transform="rotate(-90 1678 1112.5)" fill="#BE9961"/>
<ellipse cx="1679.5" cy="635" rx="41" ry="41.5" transform="rotate(-90 1679.5 635)" fill="#BE9961"/>
<ellipse cx="1678" cy="1268.5" rx="42.5" ry="43" transform="rotate(-90 1678 1268.5)" fill="#BE9961"/>
<circle cx="1678.5" cy="478.5" r="34.5" transform="rotate(-90 1678.5 478.5)" fill="#BC6666"/>
<circle cx="1677.5" cy="1112.5" r="33.5" transform="rotate(-90 1677.5 1112.5)" fill="#BC6666"/>
<circle cx="1740.5" cy="397.5" r="79.5" transform="rotate(-90 1740.5 397.5)" fill="#BE9961"/>
<ellipse cx="1740.5" cy="1030" rx="79" ry="79.5" transform="rotate(-90 1740.5 1030)" fill="#BE9961"/>
<ellipse cx="1678" cy="635" rx="34" ry="33" transform="rotate(-90 1678 635)" fill="#BC6666"/>
<ellipse cx="1678.5" cy="1269" rx="33" ry="33.5" transform="rotate(-90 1678.5 1269)" fill="#BC6666"/>
<circle cx="1741.5" cy="556.5" r="79.5" transform="rotate(-90 1741.5 556.5)" fill="#BE9961"/>
<circle cx="1740.5" cy="1188.5" r="79.5" transform="rotate(-90 1740.5 1188.5)" fill="#BE9961"/>
<ellipse cx="1740.5" cy="396" rx="71" ry="70.5" transform="rotate(-90 1740.5 396)" fill="#BC6666"/>
<ellipse cx="1740" cy="1030.5" rx="69.5" ry="70" transform="rotate(-90 1740 1030.5)" fill="#BC6666"/>
<ellipse cx="1741" cy="555" rx="71" ry="70" transform="rotate(-90 1741 555)" fill="#BC6666"/>
<circle cx="1741" cy="1189" r="70" transform="rotate(-90 1741 1189)" fill="#BC6666"/>
<circle cx="1739.5" cy="79.5" r="79.5" transform="rotate(-90 1739.5 79.5)" fill="#BE9961"/>
<ellipse cx="1739.5" cy="714" rx="78" ry="79.5" transform="rotate(-90 1739.5 714)" fill="#BE9961"/>
<circle cx="1739" cy="80" r="70" transform="rotate(-90 1739 80)" fill="#BC6666"/>
<ellipse cx="1739" cy="714" rx="71" ry="70" transform="rotate(-90 1739 714)" fill="#BC6666"/>
<circle cx="1741.5" cy="555.5" r="61.5" transform="rotate(-90 1741.5 555.5)" fill="#BE9961"/>
<circle cx="1742" cy="1190" r="62" transform="rotate(-90 1742 1190)" fill="#BE9961"/>
<circle cx="1741.5" cy="396.5" r="61.5" transform="rotate(-90 1741.5 396.5)" fill="#BE9961"/>
<ellipse cx="1741.5" cy="1030.5" rx="62.5" ry="61.5" transform="rotate(-90 1741.5 1030.5)" fill="#BE9961"/>
<ellipse cx="1740.5" cy="238" rx="62" ry="61.5" transform="rotate(-90 1740.5 238)" fill="#BE9961"/>
<ellipse cx="1741" cy="871" rx="63" ry="62" transform="rotate(-90 1741 871)" fill="#BE9961"/>
<ellipse cx="1740.5" cy="80.5" rx="62.5" ry="61.5" transform="rotate(-90 1740.5 80.5)" fill="#BE9961"/>
<ellipse cx="1740" cy="713" rx="63" ry="62" transform="rotate(-90 1740 713)" fill="#BE9961"/>
<ellipse cx="1740" cy="80.5" rx="53.5" ry="52" transform="rotate(-90 1740 80.5)" fill="#BC6666"/>
<ellipse cx="1739" cy="713" rx="53" ry="54" transform="rotate(-90 1739 713)" fill="#BC6666"/>
<ellipse cx="1741" cy="238.5" rx="53.5" ry="52" transform="rotate(-90 1741 238.5)" fill="#BC6666"/>
<circle cx="1739.5" cy="871.5" r="53.5" transform="rotate(-90 1739.5 871.5)" fill="#BC6666"/>
<ellipse cx="1741" cy="397.5" rx="53.5" ry="52" transform="rotate(-90 1741 397.5)" fill="#BC6666"/>
<circle cx="1740.5" cy="1030.5" r="53.5" transform="rotate(-90 1740.5 1030.5)" fill="#BC6666"/>
<ellipse cx="1742" cy="556.5" rx="53.5" ry="52" transform="rotate(-90 1742 556.5)" fill="#BC6666"/>
<ellipse cx="1741" cy="1189.5" rx="53.5" ry="54" transform="rotate(-90 1741 1189.5)" fill="#BC6666"/>
<ellipse cx="1737.5" cy="79" rx="43" ry="42.5" transform="rotate(-90 1737.5 79)" fill="#BE9961"/>
<ellipse cx="1738" cy="714.5" rx="42.5" ry="43" transform="rotate(-90 1738 714.5)" fill="#BE9961"/>
<ellipse cx="1738.5" cy="238" rx="43" ry="42.5" transform="rotate(-90 1738.5 238)" fill="#BE9961"/>
<ellipse cx="1738" cy="872.5" rx="42.5" ry="43" transform="rotate(-90 1738 872.5)" fill="#BE9961"/>
<circle cx="1738.5" cy="396.5" r="42.5" transform="rotate(-90 1738.5 396.5)" fill="#BE9961"/>
<ellipse cx="1739" cy="1031.5" rx="42.5" ry="43" transform="rotate(-90 1739 1031.5)" fill="#BE9961"/>
<circle cx="1739.5" cy="555.5" r="42.5" transform="rotate(-90 1739.5 555.5)" fill="#BE9961"/>
<ellipse cx="1740" cy="1190.5" rx="42.5" ry="43" transform="rotate(-90 1740 1190.5)" fill="#BE9961"/>
<circle cx="1739" cy="555" r="33" transform="rotate(-90 1739 555)" fill="#BC6666"/>
<circle cx="1738.5" cy="1189.5" r="34.5" transform="rotate(-90 1738.5 1189.5)" fill="#BC6666"/>
<ellipse cx="1737.5" cy="79" rx="33" ry="33.5" transform="rotate(-90 1737.5 79)" fill="#BC6666"/>
<circle cx="1737" cy="713" r="34" transform="rotate(-90 1737 713)" fill="#BC6666"/>
<ellipse cx="1738" cy="237.5" rx="33.5" ry="33" transform="rotate(-90 1738 237.5)" fill="#BC6666"/>
<ellipse cx="1737.5" cy="872.5" rx="33.5" ry="34.5" transform="rotate(-90 1737.5 872.5)" fill="#BC6666"/>
<ellipse cx="1739" cy="395" rx="34" ry="33" transform="rotate(-90 1739 395)" fill="#BC6666"/>
<ellipse cx="1738.5" cy="1029" rx="33" ry="34.5" transform="rotate(-90 1738.5 1029)" fill="#BC6666"/>
</svg>
