<svg width="546" height="557" viewBox="0 0 546 557" fill="none" xmlns="http://www.w3.org/2000/svg">
<ellipse cx="427.5" cy="409" rx="43" ry="42.5" transform="rotate(-90 427.5 409)" fill="#BE9961"/>
<ellipse cx="427.5" cy="409" rx="33" ry="33.5" transform="rotate(-90 427.5 409)" fill="#A55050"/>
<circle cx="401.5" cy="160.5" r="79.5" transform="rotate(-90 401.5 160.5)" fill="#BE9961"/>
<ellipse cx="403.5" cy="160.5" rx="70.5" ry="71.5" transform="rotate(-90 403.5 160.5)" fill="#A55050"/>
<ellipse cx="405.5" cy="318.5" rx="78.5" ry="79.5" transform="rotate(-90 405.5 318.5)" fill="#BE9961"/>
<ellipse cx="405" cy="318" rx="71" ry="70" transform="rotate(-90 405 318)" fill="#A55050"/>
<circle cx="405.5" cy="477.5" r="79.5" transform="rotate(-90 405.5 477.5)" fill="#BE9961"/>
<circle cx="406" cy="478" r="70" transform="rotate(-90 406 478)" fill="#A55050"/>
<ellipse cx="404.5" cy="320.5" rx="61.5" ry="62.5" transform="rotate(-90 404.5 320.5)" fill="#BE9961"/>
<ellipse cx="405.5" cy="476.5" rx="61.5" ry="62.5" transform="rotate(-90 405.5 476.5)" fill="#BE9961"/>
<ellipse cx="406.5" cy="478.5" rx="53.5" ry="54.5" transform="rotate(-90 406.5 478.5)" fill="#A55050"/>
<ellipse cx="406" cy="319.5" rx="53.5" ry="55" transform="rotate(-90 406 319.5)" fill="#A55050"/>
<ellipse cx="402.5" cy="160" rx="63" ry="62.5" transform="rotate(-90 402.5 160)" fill="#BE9961"/>
<ellipse cx="405.5" cy="160" rx="53" ry="54.5" transform="rotate(-90 405.5 160)" fill="#A55050"/>
<ellipse cx="403" cy="161.5" rx="42.5" ry="43" transform="rotate(-90 403 161.5)" fill="#BE9961"/>
<ellipse cx="404" cy="161.5" rx="33.5" ry="34" transform="rotate(-90 404 161.5)" fill="#A55050"/>
<circle cx="465.5" cy="79.5" r="79.5" transform="rotate(-90 465.5 79.5)" fill="#BE9961"/>
<circle cx="466" cy="80" r="70" transform="rotate(-90 466 80)" fill="#A55050"/>
<ellipse cx="404" cy="320.5" rx="42.5" ry="43" transform="rotate(-90 404 320.5)" fill="#BE9961"/>
<ellipse cx="404" cy="476.5" rx="42.5" ry="43" transform="rotate(-90 404 476.5)" fill="#BE9961"/>
<circle cx="403.5" cy="320.5" r="33.5" transform="rotate(-90 403.5 320.5)" fill="#A55050"/>
<ellipse cx="466.5" cy="238" rx="79" ry="79.5" transform="rotate(-90 466.5 238)" fill="#BE9961"/>
<ellipse cx="404.5" cy="477" rx="33" ry="33.5" transform="rotate(-90 404.5 477)" fill="#A55050"/>
<circle cx="466.5" cy="396.5" r="79.5" transform="rotate(-90 466.5 396.5)" fill="#BE9961"/>
<ellipse cx="466" cy="238.5" rx="69.5" ry="70" transform="rotate(-90 466 238.5)" fill="#A55050"/>
<circle cx="467" cy="397" r="70" transform="rotate(-90 467 397)" fill="#A55050"/>
<circle cx="468" cy="398" r="62" transform="rotate(-90 468 398)" fill="#BE9961"/>
<ellipse cx="467.5" cy="238.5" rx="62.5" ry="61.5" transform="rotate(-90 467.5 238.5)" fill="#BE9961"/>
<ellipse cx="467" cy="79" rx="63" ry="62" transform="rotate(-90 467 79)" fill="#BE9961"/>
<circle cx="465.5" cy="79.5" r="53.5" transform="rotate(-90 465.5 79.5)" fill="#A55050"/>
<circle cx="466.5" cy="238.5" r="53.5" transform="rotate(-90 466.5 238.5)" fill="#A55050"/>
<ellipse cx="467" cy="397.5" rx="53.5" ry="54" transform="rotate(-90 467 397.5)" fill="#A55050"/>
<ellipse cx="464" cy="80.5" rx="42.5" ry="43" transform="rotate(-90 464 80.5)" fill="#BE9961"/>
<ellipse cx="465" cy="239.5" rx="42.5" ry="43" transform="rotate(-90 465 239.5)" fill="#BE9961"/>
<ellipse cx="466" cy="398.5" rx="42.5" ry="43" transform="rotate(-90 466 398.5)" fill="#BE9961"/>
<circle cx="464.5" cy="397.5" r="34.5" transform="rotate(-90 464.5 397.5)" fill="#A55050"/>
<ellipse cx="463.5" cy="80.5" rx="33.5" ry="34.5" transform="rotate(-90 463.5 80.5)" fill="#A55050"/>
<ellipse cx="464.5" cy="237" rx="33" ry="34.5" transform="rotate(-90 464.5 237)" fill="#A55050"/>
<path d="M28.3911 257.074L6.23712 261.817L5.31268 257.499L4.37395 257.7L5.8008 264.365L28.8935 259.421L28.3911 257.074Z" fill="#BE9961"/>
<path d="M29.8322 262.469L8.72398 270.699L7.11979 266.584L6.22537 266.933L8.70141 273.284L30.7041 264.705L29.8322 262.469Z" fill="#BE9961"/>
<path d="M31.2588 266.445L13.6447 280.694L10.8673 277.261L10.1209 277.865L14.4078 283.164L32.7682 268.311L31.2588 266.445Z" fill="#BE9961"/>
<path d="M34.2631 269.661L19.0391 286.439L15.7687 283.472L15.1236 284.183L20.1714 288.763L36.0405 271.273L34.2631 269.661Z" fill="#BE9961"/>
<path d="M37.5603 272.789L25.4873 291.96L21.7505 289.607L21.239 290.419L27.0066 294.051L39.5911 274.068L37.5603 272.789Z" fill="#BE9961"/>
<path d="M42.5303 275.475L33.9728 296.453L29.8839 294.785L29.5213 295.674L35.8324 298.249L44.7525 276.382L42.5303 275.475Z" fill="#BE9961"/>
<path d="M136.666 309.891L131.331 334.465L144.277 331.365L144.501 332.298L128.941 336.025L128.717 335.091L134.083 310.509L136.666 309.891Z" fill="#BE9961"/>
<path d="M147.318 299.742L161.591 279.455L149.093 277.359L149.3 276.128L165.616 278.865L165.409 280.096L151.168 300.388L147.318 299.742Z" fill="#BE9961"/>
<path d="M149.227 306.003L150.117 305.558L161.314 321.968L160.636 322.687L149.227 306.003ZM138.918 314.476L160.201 321.564L160.363 321.685L161.304 321.999L160.566 324.215L138.159 316.753L138.918 314.476ZM149.237 305.265L150.117 305.558L144.425 322.651L143.545 322.358L149.237 305.265Z" fill="#BE9961"/>
<path d="M125.937 295.941C125.173 294.809 124.607 293.647 124.238 292.454C123.9 291.267 123.827 290.055 124.021 288.817C124.244 287.585 124.795 286.362 125.676 285.15C126.556 283.937 127.871 282.74 129.621 281.558C131.105 280.554 132.527 279.8 133.885 279.295C135.272 278.795 136.575 278.533 137.794 278.507C139.012 278.482 140.159 278.673 141.232 279.081C142.306 279.488 143.309 280.097 144.243 280.908C145.189 281.737 146.056 282.734 146.844 283.901C147.191 284.413 147.508 284.92 147.795 285.422C148.094 285.94 148.375 286.471 148.639 287.014C148.902 287.557 149.148 288.111 149.377 288.678L148.157 289.502C147.833 288.794 147.501 288.13 147.16 287.511C146.83 286.91 146.457 286.3 146.039 285.681C145.215 284.461 144.39 283.526 143.563 282.874C142.749 282.24 141.865 281.884 140.912 281.807C139.988 281.736 138.933 281.947 137.747 282.439C136.578 282.92 135.225 283.68 133.687 284.719C134.296 284.668 134.877 284.726 135.428 284.894C135.991 285.08 136.517 285.343 137.004 285.683C137.491 286.024 137.943 286.426 138.36 286.891C138.777 287.356 139.165 287.853 139.523 288.384C140.18 289.356 140.66 290.332 140.961 291.313C141.263 292.293 141.361 293.257 141.254 294.204C141.166 295.14 140.846 296.038 140.295 296.899C139.756 297.778 138.947 298.582 137.869 299.311C136.72 300.087 135.584 300.558 134.461 300.725C133.355 300.88 132.292 300.774 131.272 300.408C130.253 300.041 129.287 299.47 128.377 298.695C127.479 297.937 126.666 297.019 125.937 295.941ZM127.076 294.94C127.506 295.576 127.953 296.085 128.417 296.467C128.91 296.854 129.456 297.091 130.054 297.176C130.652 297.261 131.323 297.168 132.067 296.897C132.841 296.632 133.731 296.159 134.739 295.478C135.764 294.785 136.544 294.13 137.079 293.511C137.625 292.91 137.971 292.316 138.115 291.73C138.289 291.149 138.279 290.563 138.086 289.972C137.923 289.388 137.626 288.777 137.196 288.141C136.767 287.504 136.305 286.992 135.811 286.605C135.335 286.206 134.79 285.969 134.174 285.896C133.576 285.811 132.89 285.901 132.116 286.166C131.355 286.449 130.462 286.937 129.436 287.63C128.429 288.31 127.652 288.951 127.105 289.552C126.588 290.159 126.251 290.747 126.095 291.316C125.951 291.902 125.966 292.497 126.142 293.099C126.335 293.69 126.646 294.303 127.076 294.94Z" fill="#BE9961"/>
<path d="M46.6688 279.305C46.5544 278.309 46.487 277.254 46.4664 276.14C46.4482 275.047 46.4761 273.98 46.5501 272.941L47.6946 272.81C47.6884 273.691 47.694 274.581 47.7114 275.481C47.7288 276.381 47.7887 277.276 47.8909 278.166C48.0855 279.862 48.4145 281.231 48.8777 282.273C49.3621 283.312 50.0362 284.04 50.9 284.456C51.7662 284.894 52.8563 285.037 54.1703 284.886C55.4632 284.738 56.4619 284.365 57.1665 283.769C57.8947 283.191 58.3724 282.396 58.5995 281.382C58.8503 280.387 58.8942 279.179 58.7312 277.759L58.3333 274.294L59.605 274.148L59.9882 277.486C60.0953 278.419 60.2456 279.26 60.4392 280.011C60.654 280.759 60.9507 281.38 61.3295 281.874C61.7106 282.388 62.2138 282.749 62.8388 282.957C63.4663 283.185 64.257 283.245 65.2107 283.135C66.5247 282.984 67.4798 282.606 68.076 282.001C68.6722 281.396 69.0272 280.56 69.1411 279.495C69.2575 278.451 69.2317 277.198 69.0638 275.735C68.9616 274.845 68.817 273.96 68.63 273.08C68.4642 272.197 68.2678 271.328 68.0409 270.474L69.1854 270.342C69.4929 271.338 69.7617 272.37 69.9918 273.439C70.2243 274.528 70.3978 275.571 70.5121 276.568C70.6509 277.776 70.6999 278.951 70.6593 280.094C70.6188 281.237 70.4376 282.277 70.116 283.216C69.7967 284.176 69.2966 284.964 68.6157 285.579C67.9347 286.194 67.0114 286.568 65.8457 286.702C65.0403 286.795 64.2579 286.713 63.4983 286.456C62.76 286.197 62.0939 285.726 61.5001 285.043C60.9063 284.36 60.4128 283.428 60.0198 282.25C59.9785 283.199 59.8179 284.044 59.5379 284.785C59.2815 285.545 58.9152 286.188 58.4388 286.715C57.9861 287.261 57.4341 287.689 56.7826 288C56.1336 288.333 55.3958 288.546 54.5693 288.641C53.2764 288.789 52.1639 288.638 51.2317 288.187C50.3019 287.757 49.5279 287.094 48.9097 286.199C48.294 285.324 47.799 284.286 47.4247 283.084C47.0741 281.9 46.8221 280.64 46.6688 279.305Z" fill="#BE9961"/>
<path d="M75.4063 276.792C75.2122 275.809 75.0602 274.762 74.9501 273.653C74.8442 272.565 74.7863 271.5 74.7765 270.459L75.9067 270.236C75.9713 271.114 76.0485 272.002 76.1382 272.897C76.2279 273.793 76.3595 274.68 76.5329 275.559C76.8632 277.233 77.3011 278.571 77.8465 279.573C78.4129 280.57 79.1433 281.241 80.0378 281.587C80.9363 281.953 82.0344 282.008 83.3321 281.752C84.6088 281.5 85.5744 281.049 86.2288 280.398C86.9082 279.764 87.3204 278.932 87.4653 277.903C87.6354 276.891 87.582 275.684 87.3054 274.282L86.6303 270.86L87.8861 270.612L88.5364 273.909C88.7181 274.83 88.9356 275.656 89.1889 276.389C89.4631 277.118 89.8088 277.713 90.226 278.174C90.6473 278.657 91.1778 278.976 91.8175 279.132C92.4613 279.31 93.2542 279.306 94.196 279.12C95.4937 278.864 96.4153 278.41 96.9609 277.759C97.5065 277.108 97.7933 276.247 97.8212 275.176C97.8532 274.126 97.7268 272.878 97.4419 271.434C97.2685 270.555 97.0532 269.684 96.7961 268.822C96.5599 267.955 96.2943 267.105 95.9995 266.272L97.1297 266.049C97.5162 267.016 97.8671 268.023 98.1824 269.07C98.5017 270.138 98.7584 271.164 98.9525 272.147C99.1878 273.34 99.3312 274.508 99.3826 275.65C99.434 276.793 99.3371 277.845 99.0919 278.806C98.8509 279.789 98.4157 280.614 97.7864 281.282C97.157 281.95 96.2668 282.397 95.1157 282.624C94.3203 282.781 93.5338 282.762 92.7561 282.568C91.9994 282.369 91.2976 281.953 90.6507 281.32C90.0039 280.686 89.4372 279.798 88.9507 278.654C88.9859 279.604 88.8937 280.459 88.6741 281.22C88.4797 281.998 88.1662 282.669 87.7338 283.232C87.3264 283.813 86.8106 284.284 86.1863 284.647C85.566 285.03 84.8478 285.302 84.0315 285.463C82.7548 285.715 81.6337 285.653 80.6682 285.278C79.7069 284.925 78.8821 284.326 78.194 283.483C77.51 282.662 76.9332 281.666 76.4635 280.498C76.0188 279.346 75.6664 278.111 75.4063 276.792Z" fill="#BE9961"/>
<path d="M101.161 272.709C100.967 271.726 100.815 270.679 100.705 269.57C100.599 268.482 100.541 267.417 100.532 266.376L101.662 266.153C101.726 267.031 101.804 267.919 101.893 268.814C101.983 269.71 102.115 270.597 102.288 271.476C102.618 273.15 103.056 274.488 103.602 275.49C104.168 276.487 104.898 277.158 105.793 277.504C106.691 277.87 107.79 277.925 109.087 277.669C110.364 277.417 111.33 276.966 111.984 276.315C112.663 275.681 113.076 274.849 113.22 273.82C113.39 272.808 113.337 271.601 113.061 270.199L112.385 266.777L113.641 266.529L114.292 269.826C114.473 270.747 114.691 271.573 114.944 272.306C115.218 273.035 115.564 273.63 115.981 274.091C116.402 274.574 116.933 274.893 117.573 275.049C118.216 275.227 119.009 275.223 119.951 275.037C121.249 274.781 122.17 274.327 122.716 273.676C123.262 273.025 123.548 272.164 123.576 271.093C123.608 270.043 123.482 268.795 123.197 267.351C123.024 266.472 122.808 265.601 122.551 264.739C122.315 263.872 122.049 263.022 121.755 262.189L122.885 261.966C123.271 262.933 123.622 263.94 123.937 264.987C124.257 266.055 124.514 267.081 124.708 268.064C124.943 269.257 125.086 270.425 125.138 271.567C125.189 272.71 125.092 273.762 124.847 274.723C124.606 275.706 124.171 276.531 123.541 277.199C122.912 277.867 122.022 278.314 120.871 278.541C120.075 278.698 119.289 278.679 118.511 278.485C117.754 278.286 117.053 277.87 116.406 277.237C115.759 276.603 115.192 275.715 114.706 274.571C114.741 275.521 114.649 276.376 114.429 277.137C114.235 277.915 113.921 278.586 113.489 279.149C113.082 279.73 112.566 280.201 111.941 280.564C111.321 280.947 110.603 281.219 109.787 281.38C108.51 281.632 107.389 281.57 106.423 281.195C105.462 280.842 104.637 280.243 103.949 279.4C103.265 278.579 102.688 277.583 102.219 276.415C101.774 275.263 101.422 274.028 101.161 272.709Z" fill="#BE9961"/>
<path d="M56.7933 249.907L57.0072 250.748L52.4774 259.065C51.9382 260.05 51.4551 260.953 51.0284 261.774C50.5881 262.618 50.2495 263.407 50.0125 264.142C49.8022 264.754 49.671 265.336 49.619 265.888C49.5715 266.459 49.6191 267.025 49.7617 267.586C49.9825 268.454 50.309 269.132 50.7411 269.619C51.1551 270.111 51.6658 270.453 52.2732 270.645C52.8853 270.855 53.5873 270.927 54.3793 270.861C55.1759 270.812 56.0627 270.664 57.0396 270.415C57.7271 270.24 58.403 270.02 59.0674 269.755C59.7365 269.508 60.349 269.265 60.9049 269.028L61.0912 269.76C60.7343 269.947 60.3638 270.119 59.9796 270.274C59.5954 270.43 59.1998 270.578 58.7929 270.72C58.3907 270.88 57.9928 271.02 57.5994 271.139C57.206 271.259 56.8194 271.367 56.4395 271.463C55.3359 271.744 54.3089 271.909 53.3583 271.958C52.3943 272.03 51.527 271.952 50.7564 271.724C49.9858 271.496 49.3413 271.082 48.8227 270.482C48.2861 269.887 47.8889 269.083 47.6313 268.07C47.4472 267.346 47.39 266.629 47.4595 265.918C47.5156 265.229 47.6779 264.504 47.9464 263.742C48.2239 262.94 48.5939 262.085 49.0565 261.178C49.5057 260.293 50.0359 259.311 50.6473 258.231L54.3681 251.391L43.3508 254.193L43.1438 253.378L56.7933 249.907Z" fill="#BE9961"/>
<path d="M72.8173 270.066L71.7334 269.18L69.981 259.068C69.8558 258.219 69.7241 257.436 69.5859 256.72C69.4594 255.99 69.2884 255.344 69.0727 254.782C68.8886 254.27 68.6644 253.821 68.4002 253.437C68.1216 253.04 67.8016 252.694 67.4403 252.399C66.8044 251.879 66.2027 251.568 65.6353 251.466C65.0652 251.338 64.5051 251.374 63.9549 251.575C63.4046 251.776 62.8676 252.109 62.3438 252.573C61.8055 253.025 61.2706 253.576 60.739 254.227C60.3019 254.761 59.8996 255.312 59.5322 255.88C59.1647 256.448 58.8327 256.972 58.5361 257.453L57.5605 256.655C57.7599 256.264 57.9797 255.877 58.2199 255.495C58.4456 255.1 58.6917 254.711 58.9581 254.326C59.2245 253.941 59.4923 253.569 59.7614 253.21C60.016 252.84 60.2791 252.489 60.5508 252.156C61.4605 251.043 62.3387 250.146 63.1855 249.464C64.0297 248.755 64.851 248.282 65.6494 248.042C66.4452 247.776 67.2312 247.744 68.0075 247.944C68.7956 248.131 69.5727 248.537 70.3387 249.163C70.8879 249.612 71.3373 250.124 71.687 250.699C72.0484 251.259 72.3508 251.892 72.5941 252.597C72.8545 253.341 73.069 254.155 73.2376 255.04C73.4061 255.925 73.574 256.87 73.7413 257.875L74.9624 265.274L81.4125 257.382L82.4748 258.251L72.8173 270.066Z" fill="#BE9961"/>
<path d="M135.67 245.622C133.909 245.958 132.307 245.981 130.862 245.693C129.412 245.383 128.148 244.788 127.068 243.909C126.008 243.025 125.121 241.902 124.405 240.54C123.684 239.158 123.152 237.565 122.808 235.763C122.464 233.961 122.374 232.295 122.538 230.765C122.698 229.214 123.107 227.833 123.766 226.621C124.446 225.405 125.405 224.397 126.642 223.596C127.875 222.774 129.372 222.195 131.132 221.859C132.913 221.519 134.507 221.508 135.915 221.825C137.339 222.118 138.591 222.704 139.671 223.584C140.751 224.464 141.651 225.595 142.372 226.978C143.088 228.34 143.618 229.922 143.962 231.724C144.306 233.526 144.398 235.202 144.238 236.753C144.074 238.283 143.652 239.656 142.972 240.872C142.292 242.087 141.346 243.104 140.134 243.922C138.939 244.715 137.451 245.282 135.67 245.622ZM135.279 243.579C136.118 243.419 136.771 243.142 137.238 242.748C137.723 242.33 138.032 241.728 138.164 240.943C138.318 240.153 138.327 239.12 138.191 237.843C138.073 236.54 137.828 234.915 137.456 232.966C137.091 231.059 136.726 229.489 136.361 228.256C136.012 226.998 135.619 226.019 135.181 225.321C134.765 224.619 134.254 224.162 133.649 223.952C133.065 223.738 132.354 223.711 131.516 223.871C130.678 224.031 130.016 224.32 129.532 224.738C129.068 225.153 128.751 225.767 128.58 226.581C128.431 227.392 128.416 228.448 128.534 229.75C128.669 231.028 128.919 232.62 129.283 234.527C129.655 236.475 130.016 238.079 130.365 239.337C130.73 240.57 131.13 241.526 131.563 242.203C132.018 242.877 132.537 243.32 133.121 243.535C133.722 243.724 134.441 243.739 135.279 243.579Z" fill="#BE9961"/>
<path d="M138.87 260.035C139.523 259.837 140.009 259.601 140.327 259.326C140.659 259.025 140.824 258.574 140.82 257.973C140.817 257.372 140.635 256.48 140.277 255.296C139.955 254.234 139.626 253.442 139.29 252.92C138.953 252.397 138.56 252.093 138.111 252.006C137.675 251.893 137.131 251.935 136.477 252.133C135.824 252.331 135.337 252.601 135.017 252.943C134.712 253.258 134.564 253.727 134.573 254.348C134.583 254.969 134.749 255.811 135.07 256.872C135.429 258.056 135.773 258.9 136.104 259.401C136.434 259.903 136.811 260.19 137.234 260.263C137.671 260.309 138.217 260.233 138.87 260.035ZM142.895 273.327C141.098 273.871 139.49 274.191 138.07 274.286C136.65 274.382 135.414 274.277 134.363 273.971C133.312 273.665 132.449 273.169 131.773 272.482C131.09 271.775 130.592 270.9 130.276 269.859C130.048 269.104 129.943 268.355 129.964 267.613C130.005 266.865 130.218 266.132 130.602 265.414C130.986 264.696 131.589 264 132.411 263.328C133.227 262.635 134.311 261.984 135.664 261.373L142.28 259.37C143.744 259.127 145.008 259.068 146.071 259.192C147.127 259.295 148.015 259.539 148.733 259.924C149.451 260.308 150.025 260.803 150.453 261.409C150.902 262.008 151.241 262.686 151.47 263.441C151.89 264.83 151.864 266.142 151.391 267.377C150.939 268.606 150.007 269.724 148.595 270.731C147.204 271.732 145.304 272.597 142.895 273.327ZM142.246 271.183C142.899 270.985 143.403 270.699 143.758 270.324C144.106 269.929 144.286 269.384 144.299 268.689C144.332 267.988 144.178 267.076 143.838 265.953C143.492 264.809 143.108 263.945 142.685 263.36C142.277 262.748 141.815 262.364 141.3 262.208C140.785 262.052 140.2 262.073 139.547 262.271C138.894 262.468 138.396 262.775 138.054 263.191C137.711 263.607 137.53 264.185 137.509 264.927C137.503 265.642 137.673 266.572 138.019 267.715C138.359 268.838 138.727 269.685 139.123 270.256C139.539 270.821 140.002 271.171 140.511 271.307C141.014 271.422 141.592 271.381 142.246 271.183ZM136.027 262.902C134.703 263.169 133.56 263.259 132.598 263.171C131.635 263.084 130.824 262.872 130.165 262.537C129.507 262.201 128.972 261.761 128.562 261.217C128.146 260.652 127.836 260.033 127.632 259.359C127.217 257.991 127.218 256.742 127.634 255.613C128.064 254.458 128.951 253.409 130.293 252.468C131.635 251.526 133.48 250.7 135.828 249.989C137.604 249.451 139.169 249.134 140.521 249.036C141.888 248.912 143.06 248.992 144.037 249.275C145.015 249.559 145.818 250.04 146.447 250.719C147.07 251.377 147.536 252.217 147.845 253.238C148.049 253.912 148.135 254.599 148.102 255.3C148.063 255.981 147.862 256.643 147.5 257.288C147.138 257.932 146.581 258.558 145.828 259.165C145.076 259.772 144.075 260.331 142.826 260.843L136.027 262.902Z" fill="#BE9961"/>
<path d="M122.566 206.775L123.179 205.739L136.865 212.445L136.951 213.804L122.566 206.775ZM118.722 215.802L135.482 212.536L135.618 212.714L136.869 212.47L137.534 215.881L119.425 219.409L118.722 215.802ZM121.977 205.973L123.179 205.739L126.091 220.683L124.889 220.917L121.977 205.973Z" fill="#BE9961"/>
<path d="M237.702 211.572L259.157 204.293L257.738 200.111L258.648 199.802L260.837 206.257L238.473 213.844L237.702 211.572Z" fill="#BE9961"/>
<path d="M239.229 216.943L261.572 213.194L260.842 208.839L261.789 208.68L262.916 215.403L239.626 219.309L239.229 216.943Z" fill="#BE9961"/>
<path d="M240.041 221.088L262.468 224.299L263.094 219.927L264.045 220.063L263.079 226.811L239.701 223.464L240.041 221.088Z" fill="#BE9961"/>
<path d="M239.109 225.388L260.78 231.996L262.068 227.772L262.986 228.052L260.998 234.572L238.409 227.684L239.109 225.388Z" fill="#BE9961"/>
<path d="M237.88 229.765L258.071 240.042L260.075 236.106L260.93 236.542L257.838 242.616L236.792 231.904L237.88 229.765Z" fill="#BE9961"/>
<path d="M234.989 234.618L253.087 248.248L255.743 244.72L256.51 245.298L252.41 250.743L233.545 236.535L234.989 234.618Z" fill="#BE9961"/>
<path d="M156.263 260.235C156.076 259.25 155.932 258.203 155.83 257.093C155.732 256.004 155.682 254.939 155.68 253.897L156.812 253.682C156.87 254.561 156.941 255.449 157.024 256.345C157.107 257.242 157.232 258.13 157.399 259.01C157.717 260.687 158.145 262.028 158.683 263.033C159.242 264.035 159.967 264.712 160.859 265.064C161.755 265.437 162.852 265.5 164.152 265.254C165.43 265.011 166.399 264.567 167.058 263.921C167.743 263.292 168.161 262.463 168.313 261.436C168.491 260.425 168.447 259.217 168.18 257.813L167.531 254.386L168.788 254.148L169.414 257.449C169.589 258.371 169.8 259.2 170.048 259.934C170.317 260.665 170.658 261.263 171.072 261.727C171.49 262.212 172.018 262.536 172.656 262.697C173.299 262.879 174.092 262.881 175.035 262.702C176.334 262.456 177.259 262.009 177.81 261.362C178.36 260.715 178.653 259.856 178.689 258.785C178.729 257.735 178.612 256.487 178.338 255.041C178.171 254.16 177.962 253.288 177.711 252.424C177.482 251.555 177.222 250.703 176.934 249.868L178.066 249.653C178.445 250.623 178.788 251.633 179.096 252.682C179.407 253.752 179.656 254.78 179.843 255.765C180.07 256.96 180.204 258.128 180.247 259.271C180.29 260.414 180.185 261.465 179.933 262.425C179.685 263.406 179.243 264.227 178.609 264.891C177.975 265.554 177.081 265.994 175.929 266.213C175.132 266.364 174.346 266.339 173.569 266.139C172.814 265.935 172.116 265.514 171.473 264.875C170.831 264.237 170.271 263.344 169.793 262.197C169.821 263.147 169.723 264.002 169.498 264.761C169.297 265.538 168.979 266.206 168.542 266.766C168.131 267.344 167.611 267.811 166.984 268.169C166.361 268.548 165.641 268.815 164.824 268.97C163.545 269.212 162.424 269.142 161.462 268.76C160.503 268.399 159.683 267.794 159.001 266.947C158.323 266.12 157.754 265.12 157.293 263.948C156.857 262.793 156.513 261.556 156.263 260.235Z" fill="#BE9961"/>
<path d="M181.902 254.348C181.715 253.363 181.571 252.316 181.469 251.206C181.371 250.117 181.321 249.052 181.319 248.01L182.451 247.796C182.509 248.675 182.579 249.562 182.662 250.459C182.746 251.355 182.871 252.243 183.037 253.123C183.355 254.8 183.783 256.141 184.321 257.147C184.88 258.148 185.606 258.825 186.497 259.177C187.393 259.55 188.491 259.613 189.79 259.367C191.069 259.125 192.038 258.68 192.697 258.034C193.381 257.405 193.8 256.577 193.952 255.549C194.13 254.538 194.085 253.331 193.819 251.926L193.169 248.499L194.427 248.261L195.053 251.562C195.228 252.484 195.439 253.313 195.687 254.048C195.956 254.778 196.297 255.376 196.711 255.84C197.128 256.326 197.657 256.649 198.295 256.81C198.938 256.992 199.73 256.994 200.674 256.815C201.973 256.569 202.898 256.122 203.449 255.475C203.999 254.828 204.292 253.969 204.328 252.898C204.368 251.848 204.251 250.6 203.976 249.154C203.81 248.274 203.601 247.401 203.35 246.537C203.12 245.668 202.861 244.817 202.572 243.981L203.704 243.766C204.084 244.737 204.427 245.746 204.734 246.796C205.046 247.866 205.295 248.893 205.482 249.878C205.708 251.073 205.843 252.242 205.886 253.384C205.929 254.527 205.824 255.578 205.572 256.538C205.323 257.519 204.882 258.341 204.248 259.004C203.614 259.667 202.72 260.108 201.567 260.326C200.771 260.477 199.984 260.453 199.208 260.252C198.453 260.048 197.754 259.627 197.112 258.989C196.47 258.35 195.91 257.458 195.432 256.311C195.46 257.261 195.361 258.115 195.136 258.875C194.936 259.651 194.618 260.319 194.181 260.88C193.769 261.457 193.25 261.925 192.623 262.282C192 262.661 191.28 262.928 190.462 263.083C189.184 263.325 188.063 263.255 187.1 262.873C186.142 262.512 185.321 261.908 184.64 261.06C183.962 260.233 183.392 259.234 182.931 258.062C182.495 256.907 182.152 255.669 181.902 254.348Z" fill="#BE9961"/>
<path d="M209.535 248.316C209.348 247.331 209.204 246.284 209.102 245.174C209.005 244.085 208.955 243.02 208.952 241.978L210.084 241.763C210.142 242.643 210.213 243.53 210.296 244.426C210.379 245.323 210.504 246.211 210.671 247.091C210.989 248.768 211.417 250.109 211.955 251.115C212.514 252.116 213.239 252.793 214.131 253.145C215.027 253.518 216.124 253.581 217.424 253.335C218.703 253.092 219.671 252.648 220.331 252.002C221.015 251.373 221.433 250.545 221.586 249.517C221.763 248.506 221.719 247.298 221.453 245.894L220.803 242.467L222.061 242.229L222.686 245.53C222.861 246.452 223.073 247.281 223.32 248.015C223.589 248.746 223.93 249.344 224.344 249.808C224.762 250.293 225.29 250.617 225.929 250.778C226.571 250.96 227.364 250.962 228.307 250.783C229.607 250.537 230.532 250.09 231.082 249.443C231.633 248.796 231.926 247.937 231.962 246.866C232.001 245.816 231.884 244.568 231.61 243.122C231.443 242.241 231.234 241.369 230.984 240.505C230.754 239.636 230.495 238.784 230.206 237.949L231.338 237.734C231.717 238.705 232.061 239.714 232.368 240.763C232.679 241.833 232.929 242.861 233.115 243.846C233.342 245.041 233.476 246.21 233.519 247.352C233.562 248.495 233.458 249.546 233.205 250.506C232.957 251.487 232.516 252.309 231.881 252.972C231.247 253.635 230.354 254.075 229.201 254.294C228.404 254.445 227.618 254.42 226.842 254.22C226.086 254.016 225.388 253.595 224.746 252.956C224.104 252.318 223.543 251.426 223.065 250.278C223.094 251.229 222.995 252.083 222.77 252.842C222.57 253.619 222.251 254.287 221.815 254.847C221.403 255.425 220.884 255.892 220.257 256.25C219.634 256.629 218.913 256.896 218.096 257.051C216.817 257.293 215.697 257.223 214.734 256.841C213.775 256.48 212.955 255.876 212.273 255.028C211.595 254.201 211.026 253.201 210.565 252.029C210.129 250.874 209.786 249.637 209.535 248.316Z" fill="#BE9961"/>
<path d="M203.328 217.11L203.535 217.953L198.944 226.236C198.397 227.217 197.908 228.116 197.475 228.934C197.028 229.775 196.684 230.561 196.441 231.294C196.227 231.904 196.091 232.486 196.035 233.038C195.983 233.608 196.026 234.174 196.165 234.736C196.379 235.606 196.701 236.286 197.129 236.776C197.54 237.271 198.048 237.617 198.654 237.814C199.264 238.029 199.966 238.106 200.758 238.045C201.555 238.002 202.443 237.861 203.422 237.619C204.11 237.45 204.788 237.235 205.454 236.974C206.125 236.732 206.739 236.494 207.297 236.261L207.478 236.995C207.12 237.179 206.748 237.348 206.363 237.5C205.977 237.653 205.581 237.799 205.173 237.938C204.769 238.095 204.37 238.231 203.976 238.348C203.582 238.464 203.194 238.569 202.814 238.663C201.708 238.936 200.68 239.093 199.729 239.135C198.764 239.2 197.898 239.115 197.129 238.882C196.36 238.648 195.719 238.23 195.204 237.626C194.672 237.026 194.281 236.219 194.031 235.204C193.852 234.479 193.8 233.761 193.875 233.051C193.936 232.363 194.104 231.639 194.378 230.879C194.662 230.079 195.038 229.227 195.507 228.323C195.963 227.442 196.501 226.463 197.12 225.388L200.892 218.576L189.854 221.296L189.653 220.48L203.328 217.11Z" fill="#BE9961"/>
<path d="M220.53 235.555C219.188 235.488 217.951 235.234 216.819 234.793C215.709 234.353 214.749 233.686 213.94 232.791C213.152 231.876 212.56 230.703 212.161 229.274C211.763 227.844 211.615 226.096 211.718 224.029C211.804 222.303 212.042 220.756 212.431 219.387C212.82 218.018 213.349 216.838 214.018 215.846C214.688 214.833 215.487 214.007 216.416 213.37C217.346 212.712 218.405 212.241 219.594 211.959C220.783 211.677 222.092 211.571 223.519 211.643C224.094 211.671 224.647 211.72 225.178 211.79C225.73 211.86 226.27 211.951 226.798 212.063C227.348 212.176 227.907 212.31 228.476 212.467L228.419 213.618C227.7 213.475 227.011 213.355 226.354 213.258C225.698 213.14 224.997 213.062 224.251 213.025C222.717 212.948 221.408 213.075 220.323 213.405C219.26 213.737 218.388 214.302 217.707 215.101C217.048 215.901 216.535 216.965 216.17 218.292C215.827 219.599 215.608 221.201 215.513 223.097C215.844 222.473 216.253 221.97 216.742 221.589C217.232 221.186 217.782 220.882 218.39 220.678C218.999 220.452 219.636 220.313 220.301 220.261C220.967 220.187 221.641 220.167 222.322 220.202C223.452 220.258 224.488 220.459 225.432 220.805C226.397 221.153 227.227 221.653 227.92 222.308C228.614 222.962 229.139 223.778 229.496 224.757C229.875 225.716 230.033 226.845 229.968 228.145C229.898 229.53 229.594 230.711 229.054 231.688C228.535 232.666 227.833 233.453 226.949 234.05C226.087 234.626 225.106 235.036 224.004 235.28C222.903 235.524 221.745 235.616 220.53 235.555ZM220.463 234.334C221.315 234.377 222.076 234.319 222.746 234.16C223.439 233.981 224.031 233.669 224.523 233.224C225.017 232.757 225.401 232.125 225.675 231.327C225.972 230.53 226.151 229.514 226.212 228.278C226.275 227.021 226.199 225.981 225.984 225.158C225.791 224.316 225.472 223.638 225.028 223.124C224.584 222.611 224.025 222.241 223.353 222.015C222.703 221.769 221.952 221.625 221.1 221.582C220.248 221.54 219.475 221.608 218.783 221.787C218.113 221.946 217.521 222.258 217.006 222.723C216.513 223.19 216.118 223.832 215.82 224.651C215.546 225.449 215.377 226.476 215.314 227.733C215.252 228.969 215.318 229.998 215.512 230.819C215.727 231.641 216.057 232.309 216.501 232.823C216.947 233.315 217.505 233.685 218.176 233.932C218.848 234.158 219.611 234.292 220.463 234.334Z" fill="#BE9961"/>
<path d="M175.593 323.221C175.025 323.636 174.426 324.047 173.798 324.452C173.17 324.858 172.529 325.247 171.876 325.618C171.24 325.977 170.591 326.319 169.93 326.643L169.42 325.945C170.207 325.503 171.019 325.042 171.857 324.562C172.7 324.052 173.527 323.502 174.336 322.91C175.422 322.118 176.26 321.348 176.849 320.6C177.444 319.823 177.823 319.057 177.986 318.304C178.167 317.539 178.128 316.761 177.869 315.973C177.615 315.155 177.174 314.315 176.545 313.453C175.702 312.299 174.816 311.519 173.887 311.115C172.945 310.693 171.924 310.633 170.823 310.935C169.74 311.224 168.509 311.871 167.13 312.878L162.892 315.972L156.741 307.547L167.88 299.414L168.446 300.19L159.193 306.945L164.213 313.819L167.004 311.782C168.313 310.826 169.53 310.122 170.654 309.672C171.765 309.204 172.8 308.976 173.76 308.988C174.72 309.001 175.619 309.255 176.458 309.753C177.284 310.233 178.043 310.947 178.735 311.894C179.464 312.894 179.936 313.883 180.149 314.863C180.363 315.843 180.335 316.801 180.067 317.736C179.799 318.671 179.288 319.599 178.534 320.52C177.78 321.44 176.799 322.341 175.593 323.221Z" fill="#BE9961"/>
<path d="M181.165 241.752L152.766 233.935L155.435 248.745L153.977 249.008L150.492 229.673L151.951 229.41L180.343 237.19L181.165 241.752Z" fill="#BE9961"/>
<path d="M108.811 239.135C109.333 238.892 109.844 238.676 110.345 238.489C110.847 238.302 111.367 238.129 111.905 237.972C112.424 237.823 112.972 237.685 113.548 237.557L114.036 238.601C113.334 238.811 112.675 239.013 112.059 239.207C111.432 239.429 110.781 239.698 110.105 240.014C108.733 240.656 107.659 241.357 106.885 242.12C106.101 242.91 105.6 243.804 105.383 244.8C105.156 245.825 105.187 246.999 105.476 248.324C105.766 249.649 106.307 251.185 107.101 252.934C107.1 252.227 107.232 251.577 107.496 250.983C107.75 250.417 108.097 249.901 108.539 249.436C108.961 248.979 109.45 248.563 110.004 248.186C110.557 247.809 111.144 247.476 111.762 247.187C112.767 246.717 113.782 246.42 114.806 246.294C115.811 246.178 116.774 246.246 117.693 246.499C118.621 246.772 119.472 247.257 120.245 247.955C121.019 248.653 121.682 249.592 122.233 250.771C122.829 252.046 123.122 253.228 123.112 254.316C123.084 255.412 122.823 256.417 122.331 257.33C121.849 258.262 121.183 259.079 120.334 259.782C119.475 260.514 118.504 261.132 117.422 261.638C116.185 262.216 114.973 262.571 113.786 262.702C112.58 262.842 111.415 262.692 110.291 262.252C109.156 261.84 108.078 261.096 107.057 260.019C106.036 258.942 105.082 257.481 104.195 255.634C103.444 254.078 102.92 252.604 102.623 251.212C102.306 249.829 102.207 248.534 102.324 247.325C102.442 246.116 102.768 244.998 103.3 243.972C103.823 242.974 104.544 242.072 105.462 241.266C106.38 240.46 107.497 239.75 108.811 239.135ZM111.328 248.98C110.555 249.341 109.914 249.758 109.406 250.232C108.877 250.714 108.5 251.267 108.274 251.891C108.037 252.543 107.988 253.296 108.128 254.149C108.258 255.03 108.584 256.032 109.108 257.153C109.623 258.254 110.173 259.128 110.757 259.773C111.322 260.427 111.916 260.868 112.54 261.094C113.173 261.34 113.844 261.415 114.553 261.319C115.242 261.232 115.983 261.004 116.776 260.633C117.549 260.272 118.199 259.85 118.727 259.368C119.236 258.894 119.599 258.336 119.817 257.693C120.043 257.069 120.096 256.326 119.976 255.464C119.836 254.611 119.509 253.633 118.994 252.532C118.47 251.411 117.921 250.514 117.347 249.84C116.763 249.195 116.154 248.749 115.521 248.503C114.897 248.277 114.24 248.207 113.551 248.294C112.842 248.39 112.101 248.618 111.328 248.98Z" fill="#BE9961"/>
<path d="M184.534 233.75L184.063 234.666L169.177 228.812L169.138 227.715L184.534 233.75ZM187.674 223.708L170.356 228.587L170.196 228.498L169.17 228.787L168.423 226.134L186.892 220.93L187.674 223.708ZM185.039 234.391L184.063 234.666L179.931 220.001L180.907 219.726L185.039 234.391Z" fill="#BE9961"/>
<path d="M80.1599 250.221C80.0394 249.645 79.9392 249.037 79.859 248.398C79.7655 247.781 79.6871 247.151 79.6239 246.509C79.5813 245.88 79.5404 245.26 79.5013 244.648L80.4175 244.457C80.492 245.238 80.5768 246.026 80.6719 246.821C80.7705 247.633 80.9012 248.429 81.0641 249.209C81.2731 250.21 81.5502 251.029 81.8955 251.665C82.2443 252.318 82.6581 252.816 83.1369 253.159C83.6327 253.498 84.2054 253.698 84.8552 253.757C85.5086 253.833 86.2425 253.786 87.0569 253.616C88.1428 253.389 88.9777 253.02 89.5615 252.509C90.1623 251.994 90.534 251.314 90.6765 250.47C90.8225 249.643 90.768 248.618 90.513 247.396L89.5993 243.019L98.0492 241.255L100.461 252.81L99.4684 253.017L97.6197 244.16L91.1805 245.504L91.7489 248.227C92.011 249.483 92.1104 250.596 92.0471 251.565C92.0008 252.531 91.8004 253.352 91.4457 254.028C91.0945 254.721 90.6012 255.284 89.9658 255.718C89.3473 256.148 88.5884 256.457 87.6891 256.645C86.6541 256.861 85.7176 256.87 84.8797 256.673C84.0587 256.473 83.3416 256.091 82.7284 255.529C82.1152 254.966 81.5907 254.234 81.1548 253.334C80.7394 252.447 80.4078 251.409 80.1599 250.221Z" fill="#BE9961"/>
</svg>
