<svg width="681" height="1118" viewBox="0 0 681 1118" fill="none" xmlns="http://www.w3.org/2000/svg">
<path d="M680.768 1116.39L1.32121 1116.39L1.36597 0.999971L680.812 0.999971L680.768 1116.39Z" fill="#5077A5"/>
<rect x="-0.0153193" y="7.05332" width="156.05" height="156.766" transform="matrix(0.707342 0.706872 -0.710406 0.703793 124.422 2.21323)" fill="#5077A5" stroke="#E1CD97" stroke-width="10"/>
<rect x="-0.0153193" y="7.05332" width="156.05" height="156.766" transform="matrix(0.707342 0.706872 -0.710406 0.703793 124.422 441.921)" fill="#5077A5" stroke="#E1CD97" stroke-width="10"/>
<rect x="-0.0153193" y="7.05332" width="156.05" height="156.766" transform="matrix(0.707342 0.706872 -0.710406 0.703793 124.422 222.067)" fill="#5077A5" stroke="#E1CD97" stroke-width="10"/>
<rect x="-0.0153193" y="7.05332" width="156.05" height="156.766" transform="matrix(0.707342 0.706872 -0.710406 0.703793 124.422 661.775)" fill="#5077A5" stroke="#E1CD97" stroke-width="10"/>
<rect x="-0.0153193" y="7.05332" width="156.05" height="156.766" transform="matrix(0.707342 0.706872 -0.710406 0.703793 124.422 882.628)" fill="#5077A5" stroke="#E1CD97" stroke-width="10"/>
<rect x="-0.0153193" y="7.05332" width="156.05" height="156.766" transform="matrix(0.707342 0.706872 -0.710406 0.703793 346.422 2.21323)" fill="#5077A5" stroke="#E1CD97" stroke-width="10"/>
<rect x="-0.0153193" y="7.05332" width="156.05" height="156.766" transform="matrix(0.707342 0.706872 -0.710406 0.703793 346.422 441.921)" fill="#5077A5" stroke="#E1CD97" stroke-width="10"/>
<rect x="-0.0153193" y="7.05332" width="156.05" height="156.766" transform="matrix(0.707342 0.706872 -0.710406 0.703793 346.422 222.067)" fill="#5077A5" stroke="#E1CD97" stroke-width="10"/>
<rect x="-0.0153193" y="7.05332" width="156.05" height="156.766" transform="matrix(0.707342 0.706872 -0.710406 0.703793 346.422 661.775)" fill="#5077A5" stroke="#E1CD97" stroke-width="10"/>
<rect x="-0.0153193" y="7.05332" width="156.05" height="156.766" transform="matrix(0.707342 0.706872 -0.710406 0.703793 346.422 882.628)" fill="#5077A5" stroke="#E1CD97" stroke-width="10"/>
<rect x="-0.0153193" y="7.05332" width="156.05" height="156.766" transform="matrix(0.707342 0.706872 -0.710406 0.703793 568.422 2.21323)" fill="#5077A5" stroke="#E1CD97" stroke-width="10"/>
<rect x="-0.0153193" y="7.05332" width="156.05" height="156.766" transform="matrix(0.707342 0.706872 -0.710406 0.703793 568.422 441.921)" fill="#5077A5" stroke="#E1CD97" stroke-width="10"/>
<rect x="-0.0153193" y="7.05332" width="156.05" height="156.766" transform="matrix(0.707342 0.706872 -0.710406 0.703793 568.422 222.067)" fill="#5077A5" stroke="#E1CD97" stroke-width="10"/>
<rect x="-0.0153193" y="7.05332" width="156.05" height="156.766" transform="matrix(0.707342 0.706872 -0.710406 0.703793 568.422 661.775)" fill="#5077A5" stroke="#E1CD97" stroke-width="10"/>
<rect x="-0.0153193" y="7.05332" width="156.05" height="156.766" transform="matrix(0.707342 0.706872 -0.710406 0.703793 568.422 882.628)" fill="#5077A5" stroke="#E1CD97" stroke-width="10"/>
<path d="M85.6088 218.389V5H6V1112.26H86.1224V866.424H157V218.389H85.6088Z" stroke="#E1CD97" stroke-width="10"/>
<path d="M593.7 218.306V5.10986H675.945V1111.37H593.169V865.756H519.945V218.306H593.7Z" stroke="#E1CD97" stroke-width="10"/>
<path d="M342.197 607.709L591.945 1111.37H87.9447L342.197 607.709Z" stroke="#E1CD97" stroke-width="10"/>
<path d="M340.748 508.665L91 5H595L340.748 508.665Z" stroke="#E1CD97" stroke-width="10"/>
<rect x="83.9447" y="13.1046" width="14" height="16.9887" fill="#E1CD97"/>
</svg>
