<?xml version="1.0" encoding="UTF-8"?>
<svg id="Layer_1" data-name="Layer 1" xmlns="http://www.w3.org/2000/svg" viewBox="0 0 1733.3 1152">
  <defs>
    <style>
      .cls-1 {
        fill: none;
      }

      .cls-1, .cls-2, .cls-3 {
        stroke-width: 0px;
      }

      .cls-2 {
        fill: #4c4c4c;
      }

      .cls-3 {
        fill: #be9961;
      }
    </style>
  </defs>
  <rect class="cls-2" x="150.6" width="1379.7" height="29.5"/>
  <polygon class="cls-1" points="1733.3 1150.9 1733.3 1156 1730.7 1156 1730.7 1150.9 1733.3 1150.9"/>
  <path class="cls-1" d="m1039.7,3c1.8,0,3.6,0,5.3.1.2-1,.5-2.1.7-3.1h-10.2c.2,1,.5,2,.7,3h3.5Z"/>
  <path class="cls-1" d="m689.7,6c1.6,0,3.1,0,4.7.1.4-2,.9-4.1,1.4-6.1h-10.2c.5,2,1,4,1.4,6h2.7Z"/>
  <path class="cls-1" d="m1390.7,3c1.5,0,2.9,0,4.4.1.2-1,.5-2,.7-3.1h-10.2c.3,1,.5,2,.7,3.1,1.5-.1,2.9-.1,4.4-.1Z"/>
  <path class="cls-1" d="m341.7,6h2.7c.4-2,.9-4,1.4-6h-10.2c.5,2,1,4,1.4,6.1,1.5-.1,3.1-.1,4.7-.1Z"/>
  <path class="cls-2" d="m1733.7,661v489.9h-3v5.1H-.2v-8h.2v-547.2c80.1-4.2,146-62.3,162-138.8h3.7c1.6,0,3.1,0,4.7-.1,8.3,39.7,30,74.5,60.2,99.3s68.9,39.8,111.1,39.8c84.3,0,154.7-59.6,171.3-139h5.4c16.6,79.4,87,139,171.3,139s154.7-59.7,171.3-139.1c1.6,0,3.1.1,4.7.1h3.4c17.7,77.9,87.4,136,170.6,136s153-58.2,170.7-136.1c1.8.1,3.6.1,5.3.1,1.5,0,2.9,0,4.4-.1,17.7,77.9,87.4,136.1,170.6,136.1s152.9-58.2,170.6-136.1c1.4,0,2.9.1,4.4.1,2,0,4.1,0,6.1-.1,18.1,73.8,83.1,129.2,161.5,132.9v66.2h.4Z"/>
  <path class="cls-3" d="m513,462c-16.6,79.4-87,139-171.3,139-42.2,0-80.8-14.9-111.1-39.8-30.2-24.8-52-59.6-60.2-99.3,7-.2,13.9-.8,20.6-1.8h0c16.5,68.2,77.9,118.9,151.2,118.9s134.4-50.5,151-118.4c6.5.8,13.1,1.3,19.8,1.4Z"/>
  <path class="cls-2" d="m342.7,558c-63.5,0-116.8-43.2-132.4-101.7h0c-6.3,1.6-12.7,3-19.2,3.9,16.4,68.2,77.8,118.8,151.1,118.8s134.4-50.4,151-118.4c-6.2-.8-12.4-1.9-18.4-3.4-15.8,58.1-69,100.8-132.1,100.8Z"/>
  <path class="cls-3" d="m861,461.9c-16.6,79.4-87,139.1-171.3,139.1s-154.7-59.6-171.3-139c7-.1,13.9-.6,20.7-1.5,16.6,68,77.9,118.5,151.1,118.5s134.6-50.6,151.1-118.7c6.5.9,13,1.5,19.7,1.6Z"/>
  <path class="cls-2" d="m692.7,563c-65.2,0-119.7-45.5-133.6-106.4-6.5,1.7-13.2,3-20,3.9,16.6,68,77.9,118.5,151.1,118.5s134.6-50.6,151.1-118.7c-5.2-.7-10.2-1.7-15.2-2.8-14.3,60.5-68.6,105.5-133.4,105.5Z"/>
  <path class="cls-3" d="m1210.3,461.9c-17.7,77.9-87.3,136.1-170.6,136.1s-152.9-58.2-170.6-136c7-.1,14-.7,20.8-1.6,17.6,66.6,78.2,115.7,150.3,115.7s132.8-49.2,150.4-115.8c6.4.8,13,1.4,19.7,1.6Z"/>
  <path class="cls-2" d="m1042.7,558c-63.5,0-116.9-43.2-132.4-101.7-6.7,1.8-13.5,3.1-20.4,4.1,17.6,66.6,78.2,115.7,150.3,115.7s132.8-49.2,150.4-115.8c-5.3-.8-10.6-1.8-15.7-3-15.9,58-69.1,100.7-132.2,100.7Z"/>
  <path class="cls-3" d="m1561.3,461.9c-17.7,77.9-87.4,136.1-170.6,136.1s-152.9-58.2-170.6-136.1c7-.2,14-.8,20.8-1.7,17.5,66.6,78.2,115.8,150.4,115.8s132.8-49.1,150.3-115.7c6.4.9,13,1.5,19.7,1.6Z"/>
  <path class="cls-2" d="m1391.7,558c-63.4,0-116.7-43-132.3-101.5-6.1,1.6-12.2,2.8-18.5,3.7,17.5,66.6,78.2,115.8,150.4,115.8s132.7-49.1,150.3-115.7c-6-.8-11.9-2-17.6-3.4-15.9,58.3-69.1,101.1-132.3,101.1Z"/>
  <path class="cls-3" d="m1733.3,572.7v22c-78.5-3.7-143.4-59.1-161.5-132.9,7.1-.2,14-.9,20.8-1.9,17.6,62.6,73.4,109,140.7,112.8Z"/>
  <path class="cls-2" d="m1613.3,455.4c-6.8,1.9-13.7,3.4-20.8,4.5,17.7,62.5,73.5,109,140.7,112.8v-16.3c-57.8-5.2-105.3-46.3-119.9-101Z"/>
  <path class="cls-3" d="m162,462c-16,76.4-81.9,134.5-162,138.8v-22c69.2-3.9,126.4-53,142.3-118.3,6.4.8,13,1.3,19.7,1.5Z"/>
  <path class="cls-3" d="m340.2,535c-53.3,0-98.4-35.5-112.7-84.2-5.6,2.1-11.3,4-17.2,5.5,15.5,58.5,68.9,101.7,132.4,101.7s116.3-42.7,132.2-100.8c-7.5-1.8-14.8-4.1-21.8-6.8-14.3,48.9-59.5,84.6-112.9,84.6Z"/>
  <path class="cls-3" d="m1633.8,448.3c-6.6,2.8-13.4,5.2-20.4,7.2,14.6,54.6,62.1,95.8,119.9,101v-22.3c-48.1-5.7-87.2-40.3-99.5-85.9Z"/>
  <path class="cls-3" d="m1042.2,535c-53.6,0-98.8-35.9-112.9-84.9-6.2,2.4-12.5,4.5-19,6.2,15.6,58.6,68.9,101.7,132.4,101.7s116.3-42.7,132.2-100.8c-6.8-1.6-13.5-3.7-20-6.1-14.6,48.5-59.5,83.9-112.7,83.9Z"/>
  <path class="cls-2" d="m1650.5,440.1c-5.4,3-11,5.8-16.8,8.2,12.3,45.6,51.5,80.2,99.5,85.9v-19.6c-41.2-3.9-74.6-34.6-82.7-74.5Z"/>
  <path class="cls-3" d="m1391.2,536c-53.8,0-99.1-36.1-113.1-85.5-6.1,2.3-12.4,4.3-18.8,6,15.6,58.4,69,101.5,132.3,101.5s116.4-42.8,132.2-101c-6.7-1.7-13.3-3.7-19.7-6.1-14,49.1-59.3,85.1-112.9,85.1Z"/>
  <path class="cls-3" d="m692.2,543c-56.2,0-103.2-39.5-114.8-92.2-6,2.2-12.1,4.2-18.3,5.8,13.9,60.9,68.4,106.4,133.6,106.4s119.1-45,133.4-105.5c-6.6-1.5-13-3.4-19.3-5.7-12,52.2-58.8,91.2-114.6,91.2Z"/>
  <path class="cls-2" d="m142.3,460.4c-6.5-.9-12.8-2.1-19.1-3.6-13.2,57.6-62.8,101.3-123.2,105.8v16.1c69.2-3.8,126.4-53,142.3-118.3Z"/>
  <path class="cls-2" d="m1390.2,516c-45.2,0-83-32.1-91.6-74.8-6.6,3.5-13.4,6.7-20.4,9.4,13.9,49.3,59.3,85.5,113.1,85.5s98.9-36,113-85.1c-7.7-2.9-15.1-6.3-22.3-10.2-8.6,42.8-46.4,75.2-91.8,75.2Z"/>
  <path class="cls-2" d="m1044.2,516c-46,0-84.2-33.1-92-76.8-7.3,4.2-15,7.8-22.9,10.9,14.1,49,59.3,84.9,112.9,84.9s98.2-35.4,112.6-83.9c-6.6-2.5-13.1-5.3-19.3-8.5-9.2,42-46.6,73.4-91.3,73.4Z"/>
  <path class="cls-2" d="m693.2,518c-46.4,0-84.9-33.8-92.2-78.2-7.5,4.2-15.4,7.9-23.5,10.9,11.5,52.8,58.5,92.3,114.7,92.3s102.6-39,114.5-91.2c-7.5-2.7-14.8-5.9-21.7-9.5-8.3,43.1-46.3,75.7-91.8,75.7Z"/>
  <path class="cls-2" d="m340.2,516c-45.2,0-83-32.1-91.6-74.8-6.8,3.6-13.8,6.8-21.1,9.6h0c14.3,48.7,59.4,84.2,112.7,84.2s98.6-35.7,112.8-84.6c-7.3-2.8-14.3-6-21.1-9.7-8.5,42.9-46.3,75.3-91.7,75.3Z"/>
  <path class="cls-3" d="m694.7,495c-38.9,0-70.8-30-73.8-68.2-6.3,4.8-13,9.1-20,13,7.3,44.3,45.8,78.2,92.2,78.2s83.5-32.6,91.8-75.7c-5.9-3.1-11.6-6.5-17.1-10.2-5.3,35.6-36,62.9-73.1,62.9Z"/>
  <path class="cls-2" d="m676.8,355.5c-12.1,28.4-31.5,52.9-55.8,71.3,3,38.1,34.8,68.2,73.8,68.2s67.8-27.3,73.2-62.9c-27.9-18.8-50-45.5-63.3-76.8-4.9.4-9.9.6-14.9.6-4.5.1-8.8-.1-13-.4Z"/>
  <path class="cls-3" d="m338.7,495c-37.5,0-68.5-27.9-73.3-64.1h0c-5.4,3.7-11,7.2-16.8,10.3h0c8.7,42.7,46.4,74.8,91.6,74.8s83.3-32.4,91.7-75.3c-6.8-3.7-13.4-7.9-19.6-12.5-3.6,37.5-35.2,66.8-73.6,66.8Z"/>
  <path class="cls-2" d="m326.8,355.4h0c-13,30.6-34.5,56.8-61.5,75.5,4.8,36.2,35.8,64.1,73.3,64.1s70-29.3,73.6-66.8c-25.2-18.5-45.3-43.6-57.7-72.7-4.3.3-8.6.5-12.9.5-4.9,0-9.9-.2-14.8-.6Z"/>
  <path class="cls-3" d="m676.8,355.5c-12.1,28.4-31.5,52.9-55.8,71.3-6.3,4.8-13,9.1-20,13-7.5,4.2-15.4,7.9-23.5,10.9-6,2.2-12.1,4.2-18.3,5.8-6.5,1.7-13.2,3-20,3.9s-13.7,1.4-20.7,1.5h-5.4c-6.7-.1-13.3-.6-19.8-1.4-6.2-.8-12.4-1.9-18.4-3.4-7.5-1.8-14.8-4.1-21.8-6.8-7.3-2.8-14.3-6-21.1-9.8-6.8-3.7-13.4-7.9-19.6-12.5-25.2-18.5-45.3-43.6-57.7-72.7,6.8-.5,13.4-1.4,19.9-2.6,25.3,51.6,78.3,87.1,139.7,87.1s114.7-35.8,139.9-87.6c7.3,1.7,14.9,2.8,22.6,3.3Z"/>
  <path class="cls-3" d="m123.2,456.8c-6.7-1.7-13.1-3.7-19.5-6.1-11.1,48.9-52.7,86.1-103.7,90.8v21.1c60.4-4.5,110-48.2,123.2-105.8Z"/>
  <path class="cls-2" d="m103.7,450.7c-7.9-3-15.5-6.5-22.7-10.5-7.6,39.7-40.3,70.5-81,75.2v26.1c51-4.7,92.6-41.9,103.7-90.8Z"/>
  <path class="cls-2" d="m635.6,347.5c-23.1,43.1-68.6,72.5-120.9,72.5s-97.5-29.1-120.6-72c-6.4,2-12.9,3.6-19.6,4.9,25.3,51.6,78.3,87.1,139.7,87.1s114.7-35.8,139.9-87.6c-6.3-1.3-12.5-3-18.5-4.9Z"/>
  <path class="cls-3" d="m1044.7,497c-39.6,0-71.9-31-73.9-70.1-5.9,4.5-12.1,8.5-18.6,12.2,7.9,43.7,46.1,76.8,92,76.8s82.1-31.4,91.3-73.4c-6-3.1-11.8-6.6-17.4-10.3-4.6,36.6-35.7,64.8-73.4,64.8Z"/>
  <path class="cls-3" d="m1390.7,498c-38.9,0-70.8-30.1-73.8-68.2-5.9,4.2-12,8-18.4,11.4,8.7,42.7,46.4,74.8,91.6,74.8s83.3-32.4,91.7-75.3c-6-3.3-11.9-7-17.5-10.9-2.8,38.1-34.7,68.2-73.6,68.2Z"/>
  <path class="cls-2" d="m1028,352.6c-12,29.7-31.9,55.3-57.2,74.3,2,39,34.3,70.1,73.9,70.1s68.8-28.2,73.4-64.7c-28.8-19.4-51.6-47.2-64.7-79.8-4.5.3-9.1.5-13.7.5-4,0-7.9-.1-11.7-.4Z"/>
  <path class="cls-3" d="m1028,352.6c-12,29.7-31.9,55.4-57.2,74.3-5.9,4.5-12.2,8.5-18.6,12.2-7.3,4.2-15,7.8-22.9,10.9-6.2,2.4-12.5,4.5-19,6.2-6.7,1.8-13.5,3.1-20.4,4.1-6.8.9-13.8,1.5-20.8,1.6h-3.4c-1.6,0-3.1,0-4.7-.1-6.7-.2-13.2-.7-19.7-1.6-5.2-.7-10.2-1.6-15.2-2.8-6.6-1.5-13-3.4-19.3-5.7-7.5-2.7-14.8-5.9-21.7-9.5-5.9-3.1-11.6-6.5-17.1-10.2-27.9-18.8-50-45.5-63.3-76.8,6.7-.6,13.3-1.5,19.8-2.8,25.2,51.8,78.4,87.4,139.8,87.4s116.6-37,141.2-90.4c7.3,1.7,14.8,2.7,22.5,3.2Z"/>
  <path class="cls-2" d="m1378,352.5c-12.6,31.2-34,58-61.1,77.2,2.9,38.2,34.8,68.2,73.8,68.2s70.8-30.1,73.8-68.2c-27.1-19.2-48.4-46-61.1-77.2-4.2.3-8.4.5-12.7.5s-8.5-.2-12.7-.5Z"/>
  <path class="cls-3" d="m1669.4,428c-6,4.4-12.3,8.5-18.8,12.1,8,39.9,41.5,70.6,82.7,74.5v-23.2c-33.2-4.2-59.5-30.4-63.9-63.4Z"/>
  <path class="cls-3" d="m1378,352.5c-12.6,31.2-34,58-61.1,77.2-5.9,4.2-12,8-18.4,11.4-6.6,3.5-13.4,6.7-20.5,9.4-6.1,2.3-12.4,4.3-18.8,6-6.1,1.5-12.2,2.8-18.5,3.7-6.8,1-13.7,1.6-20.8,1.7-1.5,0-2.9.1-4.4.1-1.8,0-3.6,0-5.3-.1-6.7-.2-13.3-.8-19.8-1.7-5.3-.8-10.6-1.8-15.7-3-6.8-1.6-13.5-3.7-20-6.1-6.6-2.5-13.1-5.3-19.3-8.5-6-3.1-11.8-6.6-17.4-10.3-28.8-19.4-51.6-47.2-64.7-79.8,7-.5,13.9-1.5,20.6-2.8,24.6,53.3,78.6,90.4,141.2,90.4s116.6-37,141.2-90.4c7.2,1.3,14.4,2.3,21.7,2.8Z"/>
  <path class="cls-2" d="m1669.4,428c4.5,33.1,30.7,59.2,63.9,63.4v-141.6c-1.4-.1-2.7-.1-4.1-.2-12.1,31.5-33.1,58.7-59.8,78.4Z"/>
  <path class="cls-2" d="m986.9,344.9c-22.6,44.6-68.9,75.1-122.2,75.1s-97.8-29.4-120.9-72.5c-6.3,2.1-12.8,3.8-19.4,5.1,25.2,51.8,78.4,87.4,139.8,87.4s116.6-37,141.2-90.4c-6.3-1.2-12.4-2.8-18.5-4.7Z"/>
  <path class="cls-3" d="m1729.2,349.5c-12.1,31.5-33,58.7-59.8,78.4-6,4.4-12.3,8.5-18.8,12.1-5.4,3-11,5.8-16.8,8.2-6.6,2.8-13.4,5.2-20.4,7.2-6.8,1.9-13.7,3.4-20.8,4.5-6.8,1-13.8,1.7-20.8,1.9-2,.1-4,.1-6.1.1-1.5,0-2.9,0-4.4-.1-6.7-.2-13.3-.7-19.8-1.6-6-.8-11.9-2-17.6-3.4-6.7-1.6-13.3-3.7-19.7-6.1-7.7-2.9-15.1-6.3-22.2-10.2-6.1-3.3-11.9-7-17.5-10.9-27.1-19.2-48.4-46-61.1-77.2,7-.5,13.9-1.4,20.7-2.7,24.7,53.2,78.6,90.2,141.1,90.2s118.6-38.4,142.6-93.3c6.9,1.5,14.1,2.4,21.4,2.9Z"/>
  <path class="cls-2" d="m1565.7,423c-54.4,0-101.4-31.7-123.5-77.7-5.9,1.8-12,3.3-18.1,4.5,24.7,53.2,78.6,90.2,141.1,90.2s118.6-38.4,142.5-93.3c-5.8-1.1-11.6-2.6-17.2-4.3-21.4,47.5-69.3,80.6-124.8,80.6Z"/>
  <path class="cls-2" d="m1337.9,344.9c-22.6,44.6-68.9,75.1-122.2,75.1s-99.8-30.7-122.4-75.4c-6.3,2-12.8,3.7-19.3,5,24.6,53.3,78.6,90.4,141.2,90.4s116.6-37,141.2-90.4c-6.3-1.2-12.4-2.8-18.5-4.7Z"/>
  <path class="cls-3" d="m81,440.2c-4.8-2.7-9.5-5.6-14.1-8.7-4.8,33.8-32.5,60.3-66.8,63.2H0v20.6c40.7-4.6,73.4-35.4,81-75.1Z"/>
  <path class="cls-2" d="m66.9,431.5c-27.4-18.8-49.2-45.1-62.4-76-1.3.1-2.6.2-3.8.3H0v139h.1c34.4-3,62-29.5,66.8-63.3Z"/>
  <path class="cls-3" d="m326.8,355.4h0c-13,30.6-34.5,56.8-61.5,75.5h0c-5.4,3.7-11,7.2-16.8,10.3-6.8,3.6-13.8,6.9-21.1,9.6-5.6,2.1-11.3,4-17.2,5.5-6.3,1.6-12.7,3-19.2,3.9h0c-6.8,1-13.7,1.6-20.6,1.8-1.6,0-3.1.1-4.7.1h-3.7c-6.7-.1-13.2-.7-19.7-1.5-6.5-.9-12.8-2.1-19.1-3.6-6.7-1.7-13.1-3.7-19.5-6.1-7.9-3-15.5-6.5-22.7-10.5-4.8-2.7-9.5-5.6-14.1-8.7-27.4-18.8-49.2-45.1-62.4-76,6.3-.7,12.5-1.5,18.5-2.7,1.1-.2,2.2-.4,3.3-.7,25.2,51.9,78.4,87.6,139.9,87.6s114.7-35.8,139.9-87.6c6.8,1.5,13.7,2.5,20.7,3.1Z"/>
  <path class="cls-2" d="m164.7,420c-52.2,0-97.6-29.2-120.8-72.2-5.8,1.8-11.7,3.4-17.7,4.6,25.2,51.9,78.4,87.6,139.9,87.6s114.7-35.8,139.9-87.6c-6.9-1.4-13.7-3.3-20.2-5.5-22.9,43.5-68.5,73.1-121.1,73.1Z"/>
  <path class="cls-3" d="m1565.2,402c-45.5,0-84.9-25.8-104.4-63.6-6,2.6-12.2,5-18.6,6.9,22.1,46,69.1,77.7,123.5,77.7s103.4-33.1,124.9-80.6c-6.6-2-13.1-4.4-19.4-7.2-18.9,39.5-59.3,66.8-106,66.8Z"/>
  <path class="cls-3" d="m1215.7,420c53.4,0,99.6-30.5,122.2-75.1-5.9-1.9-11.7-4-17.3-6.5-19.5,37.8-59,63.6-104.4,63.6s-85.4-26.2-104.8-64.3c-5.9,2.6-11.9,5-18.1,6.9,22.6,44.7,68.9,75.4,122.4,75.4Z"/>
  <path class="cls-3" d="m864.7,420c53.4,0,99.6-30.5,122.2-75.1-5.6-1.8-11.1-3.8-16.5-6.1-19.6,37.6-58.9,63.2-104.2,63.2s-83.7-25.1-103.5-61.9c-6.1,2.8-12.4,5.3-18.9,7.4,23,43.1,68.5,72.5,120.9,72.5Z"/>
  <path class="cls-3" d="m514.7,420c52.4,0,97.8-29.4,120.9-72.5-6.2-2-12.2-4.3-18.1-7-19.9,36.6-58.7,61.5-103.3,61.5s-82.7-24.4-102.7-60.5c-5.6,2.5-11.4,4.6-17.4,6.5,23.1,42.9,68.4,72,120.6,72Z"/>
  <path class="cls-3" d="m164.7,420c52.6,0,98.2-29.6,121.2-73.1-6.2-2.1-12.1-4.5-18-7.2-19.8,37.1-58.8,62.3-103.7,62.3s-82.9-24.6-102.9-60.8c-5.3,2.3-10.7,4.4-16.3,6.2-.3.1-.7.2-1,.3h0c23,43.1,68.4,72.3,120.7,72.3Z"/>
  <path class="cls-2" d="m164.2,402c44.9,0,84-25.2,103.7-62.3-6.6-3.1-13-6.6-19.1-10.4-15,31.7-47.2,53.7-84.6,53.7s-68.4-21.1-83.7-51.8c-3.9,2.3-7.9,4.5-12,6.6-2.4,1.2-4.8,2.3-7.2,3.4h0c19.9,36.2,58.5,60.8,102.9,60.8Z"/>
  <path class="cls-2" d="m514.2,402c44.6,0,83.4-24.9,103.3-61.5-6.6-3-13-6.4-19.2-10.2-15.2,31.2-47.1,52.7-84.2,52.7s-68-20.9-83.5-51.3c-6.2,3.7-12.6,7-19.3,9.9,20.2,36,58.7,60.4,102.9,60.4Z"/>
  <path class="cls-2" d="m866.2,402c45.3,0,84.6-25.7,104.2-63.2-7.3-3.1-14.3-6.7-21-10.8-14.7,32.5-47.3,55-85.3,55s-68.7-21.3-83.9-52.2c-5.7,3.4-11.5,6.6-17.6,9.3,19.9,36.8,58.8,61.9,103.6,61.9Z"/>
  <path class="cls-2" d="m1216.2,402c45.5,0,84.9-25.8,104.4-63.6-7-3.1-13.7-6.5-20.2-10.4-14.7,32.5-47.3,55-85.3,55s-70.6-22.6-85.2-55c-6,3.6-12.2,6.8-18.6,9.7,19.5,38.1,59.1,64.3,104.9,64.3Z"/>
  <path class="cls-2" d="m1565.2,383c-37.7,0-70.3-22.4-85-54.6-6.2,3.7-12.7,7-19.4,10,19.5,37.8,59,63.6,104.4,63.6s87.1-27.3,106-66.8c-6.7-3-13.3-6.4-19.5-10.1-14,34-47.5,57.9-86.5,57.9Z"/>
  <path class="cls-3" d="m164.2,383c37.4,0,69.7-22,84.6-53.7-6.1-3.8-12-8-17.5-12.6-11,27.1-37.5,46.2-68.6,46.2-29.5,0-54.9-17.2-66.8-42.1h0c-3.4,2.5-6.8,5-10.4,7.2-1.7,1.1-3.3,2.1-5,3.1h0c15.3,30.8,47,51.9,83.7,51.9Z"/>
  <path class="cls-3" d="m514.2,383c37,0,69-21.5,84.2-52.7-5.6-3.4-10.9-7.1-16.1-11.1-11.6,25.8-37.5,43.8-67.6,43.8s-55.3-17.5-67.1-42.7c-5.4,4.1-11,7.9-16.9,11.4,15.4,30.4,47,51.3,83.5,51.3Z"/>
  <path class="cls-3" d="m864.2,383c37.9,0,70.6-22.6,85.3-55-6.5-3.9-12.6-8.2-18.5-12.9-10.6,28-37.6,47.9-69.2,47.9-29.5,0-54.9-17.2-66.8-42.1-4.7,3.5-9.6,6.8-14.6,9.9,15.1,30.9,47,52.2,83.8,52.2Z"/>
  <path class="cls-3" d="m1215.2,383c37.9,0,70.6-22.6,85.3-55-5.9-3.6-11.6-7.5-17-11.7-10.9,27.4-37.6,46.7-68.8,46.7s-57.5-19.1-68.5-46.1c-5.2,4-10.6,7.7-16.2,11.1,14.6,32.4,47.2,55,85.2,55Z"/>
  <path class="cls-3" d="m1565.7,363c-31,0-57.5-19.1-68.5-46.1-5.4,4.2-11.1,8-17,11.5,14.8,32.2,47.3,54.6,85,54.6s72.5-23.9,86.5-57.9c-5.7-3.4-11.1-7.1-16.3-11.1-10.3,28.6-37.6,49-69.7,49Z"/>
  <path class="cls-2" d="m1146.1,316.9c11,27,37.5,46.1,68.5,46.1s57.9-19.3,68.8-46.7c-31.4-24.4-54.3-59.3-63.4-99.4-1.4,0-2.9.1-4.4.1-1.8,0-3.6,0-5.3-.1-9.2,40.5-32.3,75.6-64.2,100Z"/>
  <path class="cls-2" d="m1497.1,316.9c11,27,37.5,46.1,68.5,46.1s59.4-20.4,69.7-49c-31.1-23.8-54-57.9-63.6-97.1-2,.1-4,.1-6.1.1-1.5,0-2.9,0-4.4-.1-9.1,40.5-32.2,75.6-64.1,100Z"/>
  <path class="cls-2" d="m102.9,315.3c-2.3,1.9-4.6,3.8-7,5.5,11.9,24.9,37.3,42.1,66.8,42.1,31,0,57.6-19.1,68.6-46.2-30.6-24.9-52.5-59.8-60.9-99.8-1.6,0-3.1.1-4.7.1h-3.7c-6.9,33.3-23.4,63.1-46.3,86.5-4.1,4.2-8.4,8.1-12.8,11.8Z"/>
  <path class="cls-2" d="m447.6,320.3c11.8,25.2,37.4,42.7,67.1,42.7s56-18,67.6-43.9c-32.1-25-55.2-60.9-63.9-102.2h-5.4c-8.8,42-32.5,78.4-65.4,103.4Z"/>
  <path class="cls-2" d="m794.9,320.9c11.9,24.9,37.3,42.1,66.8,42.1,31.7,0,58.7-19.9,69.2-47.9-30.6-24.3-52.9-58.7-61.9-98.1h-3.4c-1.6,0-3.1,0-4.7-.1-8.7,42.3-32.8,78.9-66,104Z"/>
  <path class="cls-3" d="m344.4,6h-2.7c-1.6,0-3.1,0-4.7.1h0c1.2,5.6,2.1,11.2,2.7,16.9h2c.6-5.7,1.5-11.4,2.7-17Z"/>
  <path class="cls-3" d="m231.3,316.8c5.6,4.5,11.4,8.7,17.5,12.6,6.1,3.8,12.5,7.3,19.1,10.4,5.8,2.7,11.8,5.1,18,7.2,6.6,2.2,13.3,4,20.2,5.5,6.8,1.4,13.7,2.4,20.7,3,4.9.4,9.8.6,14.9.6,4.3,0,8.7-.2,12.9-.5,6.7-.5,13.4-1.4,19.9-2.6,6.7-1.3,13.2-2.9,19.6-4.9,5.9-1.9,11.7-4,17.4-6.5,6.7-2.9,13.1-6.2,19.3-9.9,5.9-3.5,11.5-7.3,16.9-11.4,32.9-25,56.6-61.4,65.4-103.3-6.7-.1-13.3-.6-19.8-1.4-16.6,68-77.9,118.4-151,118.4s-134.7-50.6-151.1-118.8h0c-4.3.6-8.7,1.1-13.1,1.4h0c-2.5.2-5,.3-7.5.4h0c8.1,39.9,30.1,74.9,60.7,99.8Z"/>
  <path class="cls-2" d="m341.7,23h-2c.5,4.8.8,9.6,1,14.5v1.4h.1c0-5.3.3-10.6.9-15.9Z"/>
  <path class="cls-2" d="m342.2,334c73.1,0,134.4-50.4,151-118.4-6.2-.8-12.4-1.9-18.4-3.4-15.8,58.1-69,100.8-132.1,100.8s-116.8-43.2-132.4-101.7h0c-6.3,1.6-12.7,3-19.2,3.9,16.4,68.2,77.8,118.8,151.1,118.8Z"/>
  <path class="cls-3" d="m691.7,23c.6-5.7,1.5-11.4,2.7-17-1.6,0-3.1-.1-4.7-.1h-2.7c1.2,5.6,2.1,11.2,2.7,17h.5c.5.1,1,.1,1.5.1Z"/>
  <path class="cls-3" d="m582.3,319.1c5.1,4,10.5,7.7,16.1,11.1,6.2,3.8,12.6,7.2,19.2,10.2,5.9,2.7,11.9,5,18.1,7,6,2,12.2,3.6,18.5,4.9,7.4,1.5,14.9,2.6,22.6,3.1,4.3.3,8.6.5,12.9.5,5,0,10-.2,14.9-.6,6.7-.6,13.3-1.5,19.8-2.8,6.6-1.3,13.1-3,19.4-5.1,6.5-2.1,12.8-4.6,18.9-7.4,6.1-2.8,11.9-5.9,17.6-9.3,5-3.1,9.9-6.4,14.6-9.9,33.3-25.1,57.3-61.7,66.1-103.9-6.7-.2-13.2-.7-19.7-1.6-16.5,68.1-77.9,118.7-151.1,118.7s-134.5-50.5-151.1-118.6c-6.8.9-13.7,1.4-20.7,1.5,8.6,41.3,31.8,77.3,63.9,102.2Z"/>
  <path class="cls-2" d="m691.7,23h-2c.7,6.2,1,12.6,1,19,0-6.4.3-12.7,1-19Z"/>
  <path class="cls-2" d="m690.7,42v2h.1c-.1-.7-.1-1.3-.1-2Z"/>
  <path class="cls-2" d="m690.2,334c73.2,0,134.6-50.6,151.1-118.7-5.2-.7-10.2-1.7-15.2-2.8-14.3,60.5-68.6,105.5-133.4,105.5s-119.7-45.5-133.6-106.4c-6.5,1.7-13.2,3-20,3.9,16.6,68,77.9,118.5,151.1,118.5Z"/>
  <path class="cls-3" d="m1042.1,20c.7-5.7,1.7-11.4,3-16.9-1.8-.1-3.6-.1-5.3-.1h-3.4c1.3,5.6,2.3,11.2,3,17h2.7Z"/>
  <path class="cls-3" d="m930.9,315.1c5.9,4.7,12.1,9,18.5,12.9,6.7,4.1,13.7,7.7,21,10.8,5.4,2.3,10.9,4.4,16.5,6.1,6,1.9,12.2,3.5,18.5,4.7,7.4,1.5,14.9,2.5,22.5,3,3.9.3,7.8.4,11.7.4,4.6,0,9.2-.2,13.7-.5,7-.5,13.9-1.5,20.6-2.8,6.6-1.3,13-3,19.3-5,6.2-2,12.2-4.3,18.1-6.9,6.4-2.9,12.6-6.1,18.6-9.7,5.6-3.4,11-7.1,16.2-11.1,31.8-24.4,55-59.5,64.2-100-6.7-.2-13.3-.8-19.8-1.7-17.5,66.5-78.2,115.7-150.3,115.7s-132.7-49.1-150.3-115.7c-6.8.9-13.8,1.5-20.8,1.6,8.9,39.5,31.2,73.9,61.8,98.2Z"/>
  <path class="cls-2" d="m1042.1,20h-2.8c.8,6.2,1.2,12.6,1.3,19h.1c.1-6.4.6-12.7,1.4-19Z"/>
  <path class="cls-2" d="m1040.2,331c72.2,0,132.8-49.2,150.4-115.8-5.3-.8-10.6-1.8-15.7-3-15.9,58.1-69,100.8-132.2,100.8s-116.9-43.2-132.4-101.7c-6.7,1.8-13.5,3.1-20.4,4.1,17.5,66.5,78.2,115.6,150.3,115.6Z"/>
  <path class="cls-3" d="m1392.1,20c.7-5.7,1.7-11.4,3-17-1.4,0-2.9-.1-4.4-.1s-2.9,0-4.4.1c1.3,5.6,2.3,11.2,3,17h2.8Z"/>
  <path class="cls-3" d="m1283.5,316.3c5.4,4.2,11.1,8.1,17,11.7,6.5,3.9,13.2,7.4,20.2,10.4,5.6,2.5,11.4,4.6,17.3,6.5,6,1.9,12.2,3.5,18.5,4.7,7,1.4,14.2,2.4,21.6,2.9,4.2.3,8.4.5,12.7.5s8.5-.2,12.7-.5c7-.5,13.9-1.4,20.7-2.7,6.2-1.2,12.2-2.7,18.1-4.5,6.4-2,12.6-4.3,18.6-6.9,6.7-2.9,13.2-6.3,19.4-10,5.9-3.5,11.6-7.4,17-11.5,31.8-24.4,55-59.5,64.2-99.9-6.7-.2-13.3-.7-19.8-1.6-17.6,66.6-78.2,115.7-150.3,115.7s-132.8-49.2-150.4-115.8c-6.8,1-13.7,1.6-20.8,1.7,8.9,40,31.8,74.9,63.3,99.3Z"/>
  <path class="cls-2" d="m1392.1,20h-2.8c.8,6.2,1.2,12.6,1.3,19h.1c.1-6.4.6-12.8,1.4-19Z"/>
  <path class="cls-2" d="m1391.2,331c72.1,0,132.7-49.1,150.3-115.7-6-.8-11.9-2-17.6-3.4-15.8,58.2-69,101-132.2,101s-116.7-43-132.3-101.5c-6.1,1.6-12.2,2.8-18.5,3.7,17.4,66.7,78.1,115.9,150.3,115.9Z"/>
  <path class="cls-3" d="m1592.5,214.9c-6.8,1-13.8,1.7-20.8,1.9,9.6,39.2,32.5,73.3,63.6,97.1,5.2,4,10.7,7.7,16.3,11.1,6.3,3.8,12.8,7.1,19.5,10.1,6.3,2.8,12.7,5.2,19.4,7.2,5.6,1.7,11.3,3.1,17.2,4.3,7,1.4,14.2,2.3,21.4,2.9,1.4.1,2.7.2,4.1.2v-22.1c-67.2-3.7-123-50.2-140.7-112.7Z"/>
  <path class="cls-2" d="m1613.3,210.4c-6.8,1.9-13.7,3.4-20.8,4.5,17.7,62.5,73.5,109,140.7,112.8v-16.3c-57.8-5.2-105.3-46.3-119.9-101Z"/>
  <path class="cls-3" d="m4.6,355.5c6.2-.5,12.4-1.3,18.4-2.5,1.1-.2,2.2-.4,3.3-.7h0c6-1.2,11.9-2.8,17.7-4.6h0c.3-.1.7-.2,1-.3,5.6-1.8,11-3.9,16.3-6.2h0c2.4-1.1,4.8-2.2,7.2-3.4,4.1-2,8.1-4.2,12-6.6h0c1.7-1,3.4-2,5-3.1,3.5-2.3,7-4.7,10.4-7.2h0c2.4-1.8,4.7-3.6,7-5.5,4.5-3.7,8.7-7.7,12.8-11.8,23-23.4,39.4-53.2,46.3-86.5-4.3-.1-8.5-.3-12.8-.7h0c-2.3-.2-4.6-.5-6.9-.8-.2.9-.4,1.7-.7,2.6-7.2,27.5-21.8,52.1-41.5,71.4-3.4,3.4-7,6.6-10.8,9.6-.8.6-1.6,1.3-2.4,1.9-4.4,3.5-9.1,6.7-13.9,9.7-1.6,1-3.3,2-5,2.9-5,2.9-10.2,5.5-15.5,7.7-1.3.6-2.7,1.1-4.1,1.7-4.4,1.7-8.8,3.3-13.4,4.6-5.6,1.6-11.3,3-17.2,4h0c-1.3.2-2.6.4-4,.6-4.3.6-8.7,1.1-13.2,1.4H-.2v22H.5c1.5-.1,2.8-.1,4.1-.2Z"/>
  <path class="cls-3" d="m340.7,42v3.7h.1c-.1-1.2-.1-2.5-.1-3.7Z"/>
  <path class="cls-3" d="m342.7,313c63.1,0,116.3-42.7,132.2-100.8-7.5-1.8-14.8-4.1-21.8-6.8-14.2,48.9-59.4,84.6-112.8,84.6s-98.4-35.5-112.7-84.2c-4.4,1.7-9,3.2-13.6,4.5-1.2.3-2.4.7-3.6,1,15.4,58.5,68.8,101.7,132.3,101.7Z"/>
  <path class="cls-3" d="m1633.8,203.3c-6.6,2.8-13.4,5.2-20.4,7.2,14.6,54.6,62.1,95.8,119.9,101v-22.3c-48.1-5.7-87.2-40.3-99.5-85.9Z"/>
  <path class="cls-3" d="m1040.7,39h0c-.1,1,0,2,0,3v-3Z"/>
  <path class="cls-3" d="m1040.7,42c0,2.3-.1,4.6-.1,6.9h.3c-.2-2.3-.2-4.6-.2-6.9Z"/>
  <path class="cls-3" d="m1042.7,313c63.1,0,116.3-42.7,132.2-100.8-6.8-1.6-13.5-3.7-20-6.1-14.5,48.5-59.4,83.9-112.6,83.9s-98.8-35.9-112.9-84.9c-6.2,2.4-12.5,4.5-19,6.2,15.4,58.5,68.8,101.7,132.3,101.7Z"/>
  <path class="cls-2" d="m1650.5,195.1c-5.4,3-11,5.8-16.8,8.2,12.3,45.6,51.5,80.2,99.5,85.9v-19.6c-41.2-3.9-74.6-34.6-82.7-74.5Z"/>
  <path class="cls-3" d="m1390.6,39v3c.1-1,.1-2,0-3q.1,0,0,0Z"/>
  <path class="cls-3" d="m1390.7,42c0,2.9-.1,5.7-.2,8.5h.4c-.1-2.8-.2-5.6-.2-8.5Z"/>
  <path class="cls-3" d="m1391.7,313c63.2,0,116.4-42.8,132.2-101-6.7-1.7-13.3-3.7-19.7-6.1-14.1,49.2-59.3,85.1-113,85.1s-99.1-36.1-113.1-85.5c-6.1,2.3-12.4,4.3-18.8,6,15.7,58.5,69,101.5,132.4,101.5Z"/>
  <path class="cls-3" d="m690.8,47.3h-.2c0-1.1,0-2.2.1-3.3,0,1.1,0,2.2.1,3.3Z"/>
  <path class="cls-3" d="m692.7,318c64.8,0,119.1-45,133.4-105.5-6.6-1.5-13-3.4-19.3-5.7-12,52.2-58.8,91.2-114.6,91.2s-103.2-39.5-114.8-92.2c-6,2.2-12.1,4.2-18.3,5.8,13.9,60.9,68.4,106.4,133.6,106.4Z"/>
  <path class="cls-2" d="m14,332.3c1.3-.2,2.6-.4,4-.6h0c5.8-1,11.6-2.4,17.2-4,4.6-1.3,9-2.9,13.4-4.6,1.4-.6,2.7-1.1,4.1-1.7,5.3-2.3,10.5-4.9,15.5-7.7,1.7-.9,3.3-1.9,5-2.9,4.8-3,9.5-6.2,13.9-9.7.8-.6,1.6-1.3,2.4-1.9,3.7-3,7.3-6.3,10.8-9.6,19.7-19.3,34.3-43.9,41.5-71.4.2-.9.4-1.7.7-2.6-6.5-.9-12.8-2.1-19.1-3.6-1.5,6.4-3.4,12.6-5.7,18.6-6.3,16.3-15.7,31.1-27.3,43.7-1.5,1.6-3.1,3.2-4.7,4.8-4.3,4.2-8.8,8.1-13.6,11.7-.4.3-.8.6-1.2.9-6.2,4.5-12.7,8.6-19.6,12-.9.4-1.8.9-2.7,1.3-5.7,2.7-11.6,5-17.7,7-1.4.5-2.9.9-4.3,1.3-4.1,1.1-8.3,2.1-12.5,2.8-4.2.8-8.6,1.3-12.9,1.7-.3,0-.6.1-.9.1v16.1h.8c4.2-.6,8.6-1,12.9-1.7Z"/>
  <path class="cls-2" d="m1391.2,291c53.7,0,98.9-36,113-85.1-7.7-2.9-15.1-6.3-22.3-10.2-8.5,42.9-46.3,75.3-91.7,75.3s-83-32.1-91.6-74.8c-6.6,3.5-13.4,6.7-20.4,9.4,13.8,49.3,59.2,85.4,113,85.4Z"/>
  <path class="cls-2" d="m1042.2,290c53.2,0,98.2-35.4,112.6-83.9-6.6-2.5-13.1-5.3-19.3-8.5-9.2,42-46.6,73.4-91.3,73.4s-84.2-33.1-92-76.8c-7.3,4.2-15,7.8-22.9,10.9,14.1,49,59.3,84.9,112.9,84.9Z"/>
  <path class="cls-2" d="m692.2,298c55.8,0,102.6-39,114.5-91.2-7.5-2.7-14.8-5.9-21.7-9.5-8.3,43.1-46.3,75.7-91.8,75.7s-84.9-33.8-92.2-78.2c-7.5,4.2-15.4,7.9-23.5,10.9,11.5,52.8,58.5,92.3,114.7,92.3Z"/>
  <path class="cls-2" d="m340.2,290c53.5,0,98.6-35.7,112.8-84.6-7.3-2.8-14.3-6-21.1-9.7-8.5,42.9-46.3,75.3-91.7,75.3s-83-32.1-91.6-74.8c-1.4.8-2.9,1.5-4.4,2.3-5.4,2.7-11,5.2-16.7,7.3h0c14.3,48.7,59.3,84.2,112.7,84.2Z"/>
  <path class="cls-3" d="m785,197.3c-8.3,43.1-46.3,75.7-91.8,75.7-18.85,0-36.4-5.58-51.08-15.18-1.13-.74-2.24-1.5-3.33-2.29-.55-.38-1.1-.78-1.64-1.19-18.83-14.13-32.17-35.21-36.23-59.45-.01-.01-.01-.03-.01-.04,0-.02,0-.03,0-.05,7-3.9,13.7-8.2,20-13,0,.03,0,.06,0,.09,1.52,19.06,10.23,36.08,23.43,48.33,13.2,12.28,30.91,19.78,50.36,19.78,37.1,0,67.8-27.3,73.2-62.9,5.5,3.7,11.2,7.1,17.1,10.2Z"/>
  <path class="cls-2" d="m767.9,187.1c-5.4,35.6-36.1,62.9-73.2,62.9-19.45,0-37.16-7.5-50.36-19.78-13.19-12.27-21.88-29.31-23.34-48.4,5.74-4.29,11.21-8.95,16.34-13.94,1.05-1.02,2.09-2.06,3.09-3.11.66-.66,1.29-1.32,1.92-1.99.08-.08.15-.17.23-.25.11-.11.22-.22.32-.33.03-.03.06-.07.1-.1.34-.36.68-.72,1.01-1.09.55-.59,1.09-1.18,1.62-1.77.87-.96,1.72-1.94,2.57-2.92.85-.98,1.68-1.97,2.51-2.97,7.44-8.99,13.98-18.75,19.49-29.14.62-1.15,1.22-2.31,1.81-3.48,1.16-2.29,2.27-4.61,3.32-6.96.82-1.84,1.62-3.69,2.39-5.57.23-.57.46-1.14.69-1.72.23-.58.46-1.15.67-1.73,3.12-8.08,5.64-16.45,7.54-25.06,2.3-10.47,3.66-21.3,3.98-32.39h.2c.16,5.58.59,11.08,1.26,16.52.34,2.71.73,5.4,1.2,8.08v.02c.44,2.61.95,5.2,1.52,7.77,6.79,31.03,21.83,59,42.78,81.39.45.47.89.95,1.34,1.42,1.09,1.15,2.19,2.28,3.31,3.4,4.97,5,10.27,9.7,15.85,14.07,3.18,2.49,6.47,4.87,9.84,7.13Z"/>
  <path class="cls-2" d="m637.34,167.83c1.04-1,2.07-2.02,3.09-3.06-1,1.05-2.04,2.09-3.09,3.11-5.13,4.99-10.6,9.65-16.34,13.94v-.02c5.75-4.3,11.19-8.96,16.34-13.97Z"/>
  <path class="cls-3" d="m431.9,195.7c-.13.67-.27,1.34-.42,2-.14.65-.29,1.3-.45,1.95,0,.02-.01.05-.02.07-.31,1.31-.66,2.61-1.04,3.9-5.43,18.82-16.65,35.19-31.61,47.07-1.54,1.25-3.13,2.43-4.75,3.54-.54.38-1.09.75-1.64,1.12-1.63,1.1-3.3,2.14-5.01,3.12-.03.03-.06.05-.09.05-1.69.99-3.41,1.91-5.17,2.78-.02.02-.05.03-.07.03-.56.28-1.13.55-1.7.82-.62.3-1.24.58-1.86.86h-.01c-.61.27-1.22.53-1.84.79-1.23.52-2.47,1.01-3.72,1.47-1.26.46-2.53.9-3.82,1.31-1.28.41-2.57.79-3.88,1.15-.65.18-1.31.35-1.97.51-1.32.33-2.64.63-3.98.9,0,.01,0,0,0,0-1.34.27-2.69.52-4.04.73-1.36.21-2.73.4-4.11.55-3.44.38-6.94.58-10.49.58-.8,0-1.59-.01-2.38-.03-.79-.02-1.58-.05-2.36-.09-.59-.03-1.18-.06-1.77-.11-.46-.02-.92-.06-1.38-.1-.35-.03-.69-.06-1.04-.1-.33-.02-.66-.05-.99-.1-.39-.03-.77-.07-1.16-.13-.38-.03-.75-.08-1.13-.13-.27-.03-.53-.07-.8-.11-.46-.06-.93-.13-1.39-.2-.2-.03-.4-.06-.6-.1-.52-.08-1.04-.17-1.56-.26-.67-.12-1.34-.25-2.01-.38-.91-.18-1.82-.38-2.72-.59-.24-.06-.47-.11-.71-.17-.35-.09-.69-.17-1.04-.26,0,0-.03-.01-.04-.01-.29-.08-.59-.15-.89-.23-.69-.18-1.39-.38-2.08-.58-.18-.05-.36-.1-.54-.15-.41-.13-.82-.25-1.23-.38-.35-.11-.69-.22-1.03-.33,0,0-.03-.01-.04-.01-.09-.03-.18-.05-.27-.08-.25-.08-.49-.16-.73-.25-.32-.11-.64-.22-.96-.33-.24-.08-.48-.17-.72-.25-.03,0-.07-.03-.1-.04-.86-.31-1.71-.63-2.56-.96-.56-.22-1.11-.45-1.67-.68-.6-.25-1.21-.51-1.81-.77-.02-.01-.04-.02-.07-.03-7.9-3.48-15.22-8.02-21.78-13.45-5.55-4.59-10.56-9.81-14.91-15.56-.38-.49-.75-.99-1.11-1.49-.05-.06-.09-.12-.14-.18-.33-.47-.66-.93-.99-1.41-.13-.18-.25-.35-.37-.53-.02-.02-.03-.03-.04-.05-.48-.69-.94-1.38-1.39-2.08-.03-.06-.07-.11-.1-.16-.1-.16-.21-.33-.31-.49-.32-.51-.64-1.01-.96-1.53-.05-.08-.1-.16-.15-.24-.39-.66-.79-1.33-1.17-2-.05-.09-.11-.19-.16-.28-.38-.67-.76-1.35-1.12-2.04-.05-.09-.1-.18-.15-.27-.07-.14-.15-.28-.22-.42-.33-.64-.66-1.27-.98-1.92-.29-.59-.58-1.19-.86-1.79-.57-1.2-1.1-2.42-1.61-3.64-.94-2.25-1.79-4.55-2.55-6.89-.14-.39-.26-.79-.38-1.19-.09-.25-.16-.51-.24-.77-.13-.43-.26-.87-.38-1.31-.17-.58-.34-1.17-.49-1.77-.12-.43-.23-.86-.33-1.29-.16-.62-.31-1.24-.45-1.87-.17-.74-.33-1.49-.48-2.24,5-2.7,9.8-5.6,14.4-8.7.77-.48,1.55-.97,2.32-1.54.03-.02.05-.04.08-.06,1.55,11.65,5.81,22.44,12.12,31.72.42.62.85,1.24,1.29,1.84.65.9,1.32,1.77,2.01,2.63.67.84,1.36,1.67,2.06,2.48.36.42.73.83,1.11,1.24.72.8,1.47,1.58,2.23,2.35,2.46,2.48,5.1,4.79,7.9,6.89.68.52,1.37,1.02,2.06,1.51.89.63,1.8,1.24,2.72,1.83,1.38.88,2.79,1.72,4.23,2.51.96.53,1.93,1.03,2.92,1.52,3.44,1.7,7.04,3.14,10.77,4.29,1.06.33,2.13.63,3.22.92,5.96,1.55,12.21,2.37,18.66,2.37,38.4,0,70-29.3,73.6-66.8,6.2,4.6,12.8,8.8,19.6,12.5Z"/>
  <path class="cls-2" d="m412.3,183.2c-3.6,37.5-35.2,66.8-73.6,66.8-6.45,0-12.7-.82-18.66-2.37-1.09-.29-2.16-.59-3.22-.92-3.73-1.15-7.33-2.59-10.77-4.29-.99-.49-1.96-.99-2.92-1.52-1.44-.79-2.85-1.63-4.23-2.51-.92-.59-1.83-1.2-2.72-1.83-.69-.49-1.38-.99-2.06-1.51-2.8-2.1-5.44-4.41-7.9-6.89-.76-.77-1.51-1.55-2.23-2.35-.38-.41-.75-.82-1.11-1.24-.7-.81-1.39-1.64-2.06-2.48-.69-.86-1.36-1.73-2.01-2.63-.44-.6-.87-1.22-1.29-1.84-6.31-9.28-10.57-20.07-12.12-31.72-.03.02-.05.04-.08.06-.01-.05-.01-.11-.02-.16,3.89-2.71,7.69-5.51,11.34-8.53.39-.32.78-.64,1.16-.97,4.5-3.7,8.7-7.6,12.8-11.8.03-.03.07-.07.1-.1,1.27-1.27,2.53-2.63,3.7-3.9h0s.06-.07.09-.1c.45-.49.89-.98,1.33-1.47.29-.32.57-.64.85-.95l2.04-2.35c4.16-4.85,8.04-9.92,11.63-15.19l4.57-7.06s.05-.07.07-.1c5.96-9.7,11.01-20.03,15.01-30.88,1.79-4.88,3.38-9.83,4.77-14.9.32-1.16.63-2.33.93-3.5,2.3-9.4,3.9-19.2,4.6-29.1.2-3.05.39-6.1.4-9.15.02.9.04,1.8.08,2.7.48,13.47,2.48,26.53,5.84,39.05,5.7,21.25,15.32,40.89,28.04,58.13.84,1.15,1.7,2.29,2.58,3.42,1.03,1.33,2.08,2.64,3.16,3.94,1.39,1.7,2.82,3.38,4.29,5.03.86.97,1.73,1.93,2.61,2.88,3.21,3.47,6.57,6.81,10.06,10,4.75,4.38,9.75,8.49,14.94,12.3Z"/>
  <path class="cls-2" d="m277.52,217.62c-6.32-9.25-10.6-20.02-12.2-31.66.03-.02.05-.04.08-.06,1.55,11.65,5.81,22.44,12.12,31.72Z"/>
  <path class="cls-3" d="m1135.5,197.6c-9.2,42-46.6,73.4-91.3,73.4-.81,0-1.62-.01-2.42-.03-.63-.02-1.26-.04-1.88-.07-.68-.03-1.37-.07-2.05-.12-.04,0-.07,0-.1,0-.51-.03-1.03-.07-1.54-.12-.32-.02-.65-.05-.97-.09-.54-.04-1.07-.1-1.61-.16-.06,0-.12,0-.18-.02-.49-.06-.99-.12-1.48-.18-.55-.07-1.09-.15-1.63-.23-2.59-.38-5.15-.87-7.67-1.47-.62-.14-1.23-.29-1.84-.45-.05-.01-.1-.02-.14-.04-.62-.15-1.23-.32-1.84-.49-.28-.08-.57-.16-.85-.24-.4-.12-.8-.24-1.2-.36-.62-.19-1.23-.38-1.84-.59-.45-.14-.89-.29-1.33-.44-.18-.06-.37-.13-.55-.2-.52-.17-1.04-.36-1.56-.56-1.27-.47-2.53-.97-3.78-1.5-1.24-.52-2.47-1.08-3.69-1.65-1.21-.58-2.42-1.19-3.6-1.81-1.19-.63-2.36-1.29-3.52-1.96-.7-.41-1.38-.82-2.07-1.25-.56-.35-1.11-.7-1.67-1.07-.3-.19-.6-.39-.9-.59-.57-.37-1.13-.76-1.68-1.15-1.23-.86-2.44-1.74-3.62-2.66-.26-.21-.53-.41-.79-.62-.47-.37-.93-.74-1.39-1.13-.1-.07-.2-.16-.31-.25-.55-.46-1.1-.92-1.65-1.4-.05-.04-.1-.08-.15-.13-1.24-1.08-2.45-2.2-3.63-3.34-1.19-1.16-2.35-2.35-3.48-3.57-11.86-12.81-20.18-28.96-23.38-46.92-.01-.01-.01-.03-.01-.04,2.4-1.37,4.77-2.78,7.09-4.23,1.56-.99,3.11-2.01,4.65-3.05.61-.4,1.22-.82,1.82-1.26.61-.41,1.21-.84,1.81-1.28.34-.24.67-.48,1-.72.38-.27.76-.54,1.13-.83.37-.28.73-.55,1.1-.83v.02c2.01,39.09,34.31,70.08,73.9,70.08s68.8-28.2,73.4-64.7c5.6,3.7,11.4,7.2,17.4,10.3Z"/>
  <path class="cls-3" d="m1390.2,271c45.4,0,83.3-32.4,91.7-75.3-6-3.3-11.9-7-17.5-10.9-2.9,38.2-34.8,68.2-73.8,68.2s-70.8-30.1-73.8-68.2c-5.9,4.2-12,8-18.4,11.4,8.8,42.7,46.5,74.8,91.8,74.8Z"/>
  <path class="cls-2" d="m650.71,153.35c7.42-9.01,13.96-18.76,19.49-29.14-5.51,10.39-12.05,20.15-19.49,29.14Z"/>
  <path class="cls-2" d="m675.33,113.77c-1.05,2.35-2.16,4.67-3.32,6.96,1.15-2.29,2.26-4.61,3.32-6.96Z"/>
  <path class="cls-2" d="m340.2,55c.2-3.08.4-6.17.5-9.25-.01,3.05-.2,6.1-.4,9.15-.7,9.9-2.3,19.7-4.6,29.1-.3,1.17-.61,2.34-.93,3.5-1.39,5.07-2.98,10.02-4.77,14.9-4,10.85-9.05,21.18-15.01,30.88-.02.03-.04.07-.07.1,5.96-9.7,10.98-20.03,14.98-30.88,1.88-4.91,3.43-9.89,4.81-15,.3-1.12.6-2.26.89-3.4,2.3-9.4,3.9-19.1,4.6-29.1Z"/>
  <path class="cls-2" d="m374.66,145.63c-12.72-17.24-22.34-36.88-28.04-58.13-3.36-12.52-5.36-25.58-5.84-39.05.51,13.46,2.53,26.53,5.9,39.05,5.72,21.26,15.32,40.91,27.98,58.13Z"/>
  <path class="cls-2" d="m1052.1,104.39h0c-.09,0-.18-.01-.27-.02.09.01.18.01.27.02Z"/>
  <path class="cls-2" d="m1402.8,106c-6.8-17.3-10.9-36-11.9-55.5h-.4c-.9,19.5-5.1,38.1-11.9,55.5,3.9-.6,8-1,12.1-1s8.1.4,12.1,1Z"/>
  <path class="cls-2" d="m334.77,87.5c-1.39,5.07-2.98,10.02-4.77,14.9-4,10.85-9.05,21.18-15.01,30.88-.02.03-.04.07-.07.1l-4.57,7.06c-3.59,5.27-7.47,10.34-11.63,15.19l-2.04,2.35c-.28.31-.56.63-.85.95-.44.49-.88.98-1.33,1.47-.03.03-.06.07-.09.1h0c-1.17,1.27-2.43,2.63-3.7,3.9-.03.03-.07.07-.1.1-4.1,4.2-8.3,8.1-12.8,11.8-.38.33-.77.65-1.16.97v-89.77h58.13Z"/>
  <path class="cls-2" d="m397.36,87.5v83.4c-3.49-3.19-6.85-6.53-10.06-10-.88-.95-1.75-1.91-2.61-2.88-1.47-1.65-2.9-3.33-4.29-5.03-1.08-1.3-2.13-2.61-3.16-3.94-.88-1.13-1.74-2.27-2.58-3.42-12.72-17.24-22.34-36.88-28.04-58.13h50.74Z"/>
  <path class="cls-2" d="m686.62,79.69c-1.9,8.61-4.42,16.98-7.54,25.06-.22.58-.44,1.16-.67,1.73-.23.58-.46,1.15-.69,1.72-.77,1.88-1.57,3.73-2.39,5.57-1.05,2.35-2.16,4.67-3.32,6.96-.59,1.17-1.2,2.33-1.81,3.48-5.51,10.39-12.05,20.15-19.49,29.14-.83,1-1.66,1.99-2.51,2.97-.85.98-1.7,1.96-2.57,2.92-.53.59-1.07,1.18-1.62,1.77-.33.37-.67.73-1.01,1.09-.04.03-.07.07-.1.1-.1.11-.21.22-.32.33-.08.08-.15.17-.23.25-.63.67-1.28,1.33-1.92,1.99-1,1.05-2.04,2.09-3.09,3.11v-88.19h49.28Z"/>
  <path class="cls-2" d="m758.06,79.69v100.28c-5.58-4.37-10.88-9.07-15.85-14.07-1.12-1.12-2.22-2.25-3.31-3.4-.45-.47-.89-.95-1.34-1.42-20.95-22.39-35.99-50.36-42.78-81.39h63.28Z"/>
  <path class="cls-2" d="m1052.1,104.39h0c-.09,0-.18-.01-.27-.02.09.01.18.01.27.02Z"/>
  <path class="cls-2" d="m1104.21,29.44v116.12h-29.6c-9.22-12.55-16.8-26.37-22.41-41.16-.03,0-.07-.01-.1-.01-6.6-17.3-10.5-35.99-11.3-55.39h-.3c-.8,19.96-4.88,39.02-11.76,56.69-.01,0-.03.01-.04.01-3.91,10.01-8.72,19.57-14.34,28.58-.4.64-.79,1.27-1.19,1.89-.41.65-.83,1.29-1.25,1.93-1.13,1.72-2.29,3.42-3.48,5.09-.57.8-1.14,1.59-1.71,2.37h-23.24V29.44h120.72Z"/>
  <rect class="cls-2" x="1318.24" y="32.89" width="120.73" height="116.11"/>
  <path class="cls-2" d="m1118.1,187.3c-4.6,36.5-35.7,64.7-73.4,64.7-39.59,0-71.89-30.99-73.9-70.08,11.32-8.53,21.58-18.39,30.5-29.36.6-.73,1.19-1.47,1.77-2.21.63-.79,1.25-1.59,1.85-2.39.61-.79,1.21-1.59,1.8-2.4h.01c.57-.78,1.14-1.57,1.71-2.37,1.19-1.67,2.35-3.37,3.48-5.09.42-.64.84-1.28,1.25-1.93.41-.62.81-1.26,1.19-1.89,5.62-9.01,10.43-18.57,14.34-28.58.01,0,.03-.01.04-.01,6.88-17.67,10.96-36.73,11.76-56.69h.3c.8,19.4,4.7,38.09,11.3,55.39-.09-.01-.18-.01-.27-.02.09.01.18.02.27.03h0s.07,0,.1,0c5.61,14.79,13.19,28.61,22.41,41.16,11.97,16.3,26.71,30.44,43.49,41.74Z"/>
  <path class="cls-2" d="m1001.3,152.56c-8.92,10.97-19.18,20.83-30.5,29.36v-.02c11.3-8.52,21.55-18.38,30.5-29.34Z"/>
  <path class="cls-2" d="m1008.44,143.19c-.57.8-1.14,1.59-1.71,2.37h-.01c.58-.78,1.15-1.57,1.72-2.37Z"/>
  <path class="cls-2" d="m1052.1,104.39h0c-.09,0-.18-.01-.27-.02.09.01.18.01.27.02Z"/>
  <path class="cls-3" d="m690.6,42.1v2c-.1,1.1-.1,2.2-.1,3.3-.32,11.05-1.67,21.84-3.95,32.29-1.87,8.61-4.38,16.98-7.47,25.06-.22.58-.44,1.16-.67,1.73-.23.58-.46,1.15-.69,1.72-.77,1.88-1.57,3.73-2.39,5.57-1.05,2.35-2.16,4.67-3.32,6.96-.59,1.17-1.2,2.33-1.81,3.48-5.51,10.39-12.05,20.15-19.49,29.14-.83,1-1.66,1.99-2.51,2.97-.85.98-1.7,1.96-2.57,2.92-.53.59-1.07,1.18-1.62,1.77-.33.37-.67.73-1.01,1.09-.04.03-.07.07-.1.1-.1.11-.21.22-.32.33-.08.08-.15.17-.23.25-.63.67-1.28,1.33-1.92,1.99-1,1.05-2.04,2.09-3.09,3.11-5.13,4.99-10.6,9.65-16.34,13.94-.03.03-.06.05-.09.07h0c-6.37,4.78-12.93,9.06-19.89,12.95-.03.02-.06.03-.09.05-.01,0-.01.01-.02.01-2.59,1.45-5.24,2.8-7.91,4.11-.58.29-1.16.57-1.75.85-.1.05-.21.1-.31.14-.9.43-1.79.85-2.7,1.26-.06.03-.12.06-.18.09-.06.03-.12.05-.18.08-.03.01-.07.03-.1.04-.93.42-1.86.83-2.8,1.23-.62.27-1.24.53-1.85.79-1.86.79-3.73,1.55-5.61,2.27-.04.01-.07.03-.11.04-5.9,2.3-12.1,4.2-18.3,5.8-6.49,1.7-13.18,3-19.97,3.9h-.03c-6.79.9-13.69,1.4-20.68,1.5h-5.44c-.8-.01-1.59-.03-2.39-.06-.76-.02-1.51-.05-2.27-.08-.08,0-.17-.01-.25-.01-.82-.04-1.64-.08-2.47-.13-.83-.05-1.65-.1-2.48-.16-.81-.06-1.62-.12-2.43-.19-.02.01-.03,0-.05,0-1.64-.14-3.27-.3-4.9-.48-.81-.08-1.63-.18-2.44-.28-.03,0-.07-.01-.1-.01-.79-.1-1.57-.21-2.35-.32-.78-.11-1.56-.23-2.34-.35-4.62-.74-9.15-1.67-13.62-2.71-.03,0-.06,0-.09-.02-2.76-.67-5.52-1.42-8.25-2.23-.92-.27-1.83-.54-2.74-.83h-.02c-1.81-.56-3.6-1.16-5.38-1.78,0,0,0-.01,0-.01-1.03-.36-2.05-.73-3.06-1.11-.75-.27-1.5-.53-2.25-.81-.03-.01-.06-.02-.09-.03-7.3-2.7-14.3-6-21.1-9.7-6.8-3.8-13.4-7.9-19.6-12.5-5.19-3.81-10.19-7.92-14.94-12.3-3.49-3.19-6.85-6.53-10.06-10-.88-.95-1.75-1.91-2.61-2.88-1.47-1.65-2.9-3.33-4.29-5.03-1.08-1.3-2.13-2.61-3.16-3.94-.88-1.13-1.74-2.27-2.58-3.42-.4-.54-.79-1.08-1.18-1.62-12.14-16.85-21.34-35.92-26.86-56.51-3.15-11.74-5.1-23.95-5.73-36.53-.04-.84-.08-1.68-.11-2.52-.04-.9-.06-1.8-.08-2.7v-6.85c.05-2.67.15-5.32.32-7.95.03-.48.06-.97.09-1.45.01-.23.03-.46.05-.68.09-1.28.2-2.55.33-3.83.06-.67.13-1.33.21-1.99.6-5.7,1.5-11.4,2.7-17,.4-2,.9-4,1.4-6h18c-2.49,9.49-4.12,19.38-4.78,29.5-.05.8-.09,1.59-.14,2.39-.04.84-.07,1.69-.1,2.53-.03.84-.05,1.68-.06,2.52,0,.85-.02,1.71-.02,2.56s.01,1.66.02,2.48c.02,1.06.04,2.11.08,3.16.02.63.05,1.25.08,1.87.12,2.52.3,5.02.54,7.5.11,1.14.23,2.29.36,3.43.06.46.11.91.17,1.37.07.62.16,1.24.25,1.86.05.37.1.73.16,1.1.06.43.12.86.19,1.28.08.52.16,1.04.25,1.56.11.64.21,1.28.33,1.92.23,1.28.47,2.55.73,3.81.11.6.24,1.19.37,1.78.15.67.3,1.34.45,2.01.29,1.25.59,2.5.91,3.74.16.62.33,1.24.49,1.86.33,1.24.68,2.46,1.05,3.69h0c.35,1.2.72,2.39,1.1,3.58,6.61,20.41,17.31,38.98,31.13,54.72,28.47,32.42,70.2,52.88,116.74,52.88,28.9,0,55.95-7.88,79.13-21.64.54-.31,1.08-.63,1.61-.97,1.07-.64,2.13-1.3,3.18-1.98.53-.33,1.05-.67,1.57-1.02.52-.35,1.04-.69,1.56-1.04,1.03-.68,2.06-1.39,3.07-2.13,1.02-.71,2.02-1.44,3.02-2.21.5-.35,1-.73,1.49-1.13.52-.39,1.03-.79,1.54-1.19.3-.22.59-.46.89-.71.03-.02.06-.04.09-.07.78-.62,1.56-1.25,2.33-1.9,5.56-4.61,10.78-9.61,15.63-14.95,2.84-3.13,5.55-6.37,8.13-9.72,12.38-16.05,21.69-34.6,27.05-54.75,3.4-12.79,5.21-26.23,5.21-40.09,0-3.39-.11-6.75-.33-10.1-.66-10.08-2.29-19.94-4.77-29.4h21c.5,2,1,4,1.4,6,1.2,5.6,2.1,11.3,2.7,17,.2,2.11.39,4.25.53,6.4.3,4.16.47,8.38.47,12.6Z"/>
  <path class="cls-3" d="m13.8,315.9c4.2-.8,8.4-1.7,12.5-2.8,1.4-.4,2.9-.8,4.3-1.3,6.1-1.9,12-4.2,17.7-7,.9-.4,1.8-.8,2.7-1.3,6.9-3.5,13.4-7.5,19.6-12,.4-.3.8-.6,1.2-.9,4.8-3.6,9.3-7.5,13.6-11.7,1.6-1.6,3.1-3.2,4.7-4.8,11.7-12.6,21-27.4,27.3-43.7,2.3-6,4.2-12.2,5.7-18.6-2.6-.7-5.2-1.4-7.8-2.1-4-1.2-7.9-2.5-11.7-4-1.4,6-3.2,11.8-5.4,17.4h0c-5.3,13.3-13,25.3-22.5,35.7-3,3.3-6.2,6.4-9.5,9.3-4.9,4.3-10.2,8.2-15.8,11.6-1.2.8-2.5,1.5-3.8,2.2-6,3.4-12.3,6.2-18.8,8.5-2.2.8-4.5,1.5-6.8,2.1-3.3.9-6.6,1.7-10,2.4-3.3.6-6.6,1.1-10,1.4-.3,0-.7.1-1,.1v21.1c.3,0,.6,0,.9-.1,4.4-.2,8.7-.8,12.9-1.5Z"/>
  <path class="cls-2" d="m11,295c3.4-.6,6.8-1.4,10-2.4,2.3-.6,4.6-1.3,6.8-2.1,6.6-2.3,12.9-5.1,18.8-8.5,1.3-.7,2.6-1.5,3.8-2.2,5.6-3.4,10.9-7.3,15.8-11.6,3.3-2.9,6.5-6,9.5-9.3,9.5-10.4,17.2-22.4,22.5-35.7h0c2.2-5.6,4.1-11.4,5.4-17.4-6.3-2.4-12.5-5.2-18.5-8.3-1.4-.7-2.9-1.5-4.3-2.3-.5,2.8-1.2,5.7-2,8.4-4.7,16.2-13.7,30.7-25.7,42h0c-4.7,4.5-9.9,8.4-15.5,11.8-2.7,1.7-5.6,3.2-8.5,4.6h0c-5.6,2.7-11.6,4.8-17.8,6.3-1,.2-1.9.5-2.9.7-2.5.5-5,1-7.5,1.3-.4,0-.8.1-1.1.1v26.1c.3,0,.7,0,1-.1,3.6-.3,6.9-.8,10.2-1.4Z"/>
  <path class="cls-2" d="m358.7,39.5c0,85.9,69.6,155.5,155.5,155.5s155.5-69.6,155.5-155.5c0-13.6-1.8-26.9-5.1-39.5h-18.3c3.5,12.1,5.3,24.8,5.3,38,0,75.7-61.3,137-137,137s-137-61.3-137-137c0-13.2,1.9-25.9,5.3-38h-19.3c-3.2,12.6-4.9,25.9-4.9,39.5Z"/>
  <path class="cls-3" d="m1040.5,39.1v3c0,2.3,0,4.6-.1,6.9-.7,20-4.9,39.1-11.8,56.8-3.89,9.98-8.68,19.5-14.24,28.48-.4.64-.79,1.27-1.19,1.89-.41.65-.83,1.29-1.25,1.93-1.13,1.72-2.29,3.42-3.48,5.09-.57.8-1.14,1.59-1.71,2.37h-.01c-.59.81-1.19,1.61-1.8,2.4-.61.8-1.23,1.6-1.85,2.39-.58.74-1.17,1.48-1.77,2.21-8.92,10.97-19.18,20.83-30.5,29.36-.03.03-.07.05-.1.08-.33.25-.66.5-1,.73-.37.29-.75.56-1.13.83-.33.24-.66.48-1,.72-.6.43-1.2.86-1.81,1.28-.6.42-1.21.84-1.82,1.26-1.54,1.04-3.09,2.06-4.65,3.05-2.32,1.48-4.68,2.9-7.08,4.27-.04.02-.07.04-.11.06-7.3,4.1-15,7.8-22.9,10.9-6.2,2.4-12.5,4.5-19,6.2-6.56,1.79-13.42,3.08-20.28,4.08-.04.01-.08.01-.12.02-6.76.89-13.72,1.49-20.68,1.6h-3.52c-1.57,0-3.04-.1-4.6-.1h-.1c-6.67-.1-13.13-.69-19.6-1.59-.03,0-.07-.01-.1-.01-5.07-.7-10.14-1.59-15.11-2.78-.03-.01-.06-.01-.09-.02-2.12-.48-4.23-1.02-6.31-1.6-.15-.04-.3-.08-.44-.12-.55-.15-1.1-.31-1.64-.47-2.07-.59-4.12-1.23-6.16-1.9-.24-.08-.48-.16-.71-.24-.21-.07-.41-.14-.62-.21-.1-.03-.2-.06-.3-.1-1.01-.33-2.03-.68-3.03-1.03-.03-.01-.06-.02-.09-.03-1.88-.68-3.74-1.38-5.58-2.12-.69-.28-1.38-.56-2.06-.84-4.1-1.71-8.13-3.56-12.09-5.54-.66-.33-1.31-.66-1.97-1-5.9-3.1-11.6-6.5-17.1-10.2-3.35-2.3-6.64-4.7-9.84-7.21-5.56-4.35-10.86-9.02-15.85-13.99-1.12-1.12-2.22-2.25-3.31-3.4-.45-.47-.89-.95-1.34-1.42-20.87-22.46-35.95-50.38-42.77-81.39-.57-2.57-1.07-5.16-1.53-7.77v-.02c-.46-2.67-.86-5.37-1.2-8.08-.67-5.44-1.1-10.94-1.26-16.52-.1-1.1-.1-2.2-.1-3.3v-2c0-.92.01-1.84.02-2.76.01-.53.02-1.07.03-1.6.02-.74.04-1.48.06-2.22.03-.72.06-1.43.09-2.14.06-1.27.13-2.53.22-3.78.04-.61.08-1.21.13-1.82.06-.77.13-1.55.21-2.32.07-.78.15-1.57.24-2.36.1-.89.2-1.78.31-2.68.07-.63.15-1.26.24-1.89l.18-1.35c.1-.71.21-1.41.31-2.11.14-.88.29-1.76.44-2.63.36-2.1.77-4.18,1.22-6.24.2-1,.42-2.02.66-3.05.12-.51.24-1.03.37-1.53.12-.51.24-1.01.37-1.52h18c-2.49,9.49-4.12,19.38-4.78,29.5-.05.8-.09,1.59-.14,2.39-.04.84-.07,1.69-.1,2.53-.03.84-.05,1.68-.06,2.52,0,.85-.02,1.71-.02,2.56s.01,1.66.02,2.48c.02,1.06.04,2.11.08,3.16.02.63.05,1.25.08,1.87.12,2.52.3,5.02.54,7.5.11,1.14.23,2.29.36,3.43.06.46.11.91.17,1.37.07.62.16,1.24.25,1.86.05.37.1.73.16,1.1.06.43.12.86.19,1.28.08.52.16,1.04.25,1.56.11.64.21,1.28.33,1.92.23,1.28.47,2.55.73,3.81.11.6.24,1.19.37,1.78.15.67.3,1.34.45,2.01.29,1.25.59,2.5.91,3.74.12.44.23.88.35,1.32.05.18.1.36.14.54.33,1.24.68,2.46,1.05,3.69.18.61.37,1.22.56,1.83.18.61.37,1.22.58,1.82.39,1.21.8,2.41,1.22,3.61.2.6.41,1.2.64,1.79.22.6.44,1.19.67,1.78.22.59.44,1.18.68,1.77.23.59.46,1.17.71,1.76,8.54,21.01,21.57,39.73,37.87,54.98,27.76,25.96,65.03,41.84,106.04,41.84,28.9,0,55.95-7.88,79.13-21.64.54-.31,1.08-.63,1.61-.97,1.07-.64,2.13-1.3,3.18-1.98.53-.33,1.05-.67,1.57-1.02.52-.35,1.04-.69,1.56-1.04,1.03-.68,2.06-1.39,3.07-2.13,1.02-.71,2.02-1.44,3.02-2.21.5-.35,1-.73,1.49-1.13.52-.39,1.03-.79,1.54-1.19.3-.22.59-.46.89-.71.03-.02.06-.04.09-.07.78-.62,1.56-1.25,2.33-1.9,5.56-4.61,10.78-9.61,15.63-14.95,1.46-1.61,2.88-3.24,4.28-4.91,22.54-26.98,36.11-61.73,36.11-99.65,0-3.39-.11-6.75-.33-10.1v-.06c-.67-10.06-2.3-19.9-4.77-29.34h21c.2,1,.5,2,.7,3,1.3,5.6,2.3,11.3,3,17,.35,3.07.64,6.2.87,9.34,0,.02,0,.04.01.06.22,3.19.37,6.39.42,9.6Z"/>
  <path class="cls-2" d="m1390.7,253c38.9,0,70.8-30.1,73.8-68.2-27.5-19.6-49.1-46.9-61.7-78.8-3.9-.6-8-1-12.1-1s-8.1.4-12.1,1c-12.5,31.9-34.2,59.2-61.7,78.8,3,38.1,34.9,68.2,73.8,68.2Z"/>
  <path class="cls-3" d="m1733.3,99.6v-7.1c-.8,2.5-1.6,5-2.4,7.4.7-.1,1.6-.2,2.4-.3Z"/>
  <path class="cls-3" d="m1669.4,183c-6,4.4-12.3,8.5-18.8,12.1,8,39.9,41.5,70.6,82.7,74.5v-23.2c-33.2-4.2-59.5-30.4-63.9-63.4Z"/>
  <path class="cls-3" d="m1042.1,20c-.8,6.2-1.2,12.6-1.3,19v3c0,2.3.1,4.6.1,6.9.8,19.5,4.7,38.1,11.3,55.4,13,34,36.2,62.9,65.9,82.9,5.6,3.8,11.4,7.2,17.4,10.3,6.2,3.2,12.7,6.1,19.3,8.5,6.5,2.4,13.2,4.5,20,6.1,5.2,1.2,10.4,2.2,15.7,3,6.5.9,13.1,1.5,19.8,1.7,1.8.1,3.6.1,5.3.1,1.5,0,2.9,0,4.4-.1,7-.2,14-.8,20.8-1.7,6.3-.9,12.5-2.1,18.5-3.7,6.4-1.6,12.7-3.7,18.8-6,7-2.7,13.9-5.8,20.4-9.4,6.4-3.4,12.5-7.2,18.4-11.4,27.5-19.6,49.1-46.9,61.7-78.8,6.8-17.3,10.9-36,11.9-55.5.1-2.8.2-5.7.2-8.5v-3c-.1-6.4-.6-12.8-1.3-19-.7-5.7-1.7-11.4-3-17-.2-1-.5-2-.7-3.1h-20c3.3,12.6,5.1,25.9,5.1,39.5,0,85.9-69.6,155.5-155.5,155.5s-155.5-69.6-155.5-155.5c0-13.6,1.8-26.9,5.1-39.5h-19c-.3,1-.5,2.1-.7,3.1-1.4,5.8-2.4,11.5-3.1,17.2Z"/>
  <path class="cls-2" d="m1669.4,183c4.5,33.1,30.7,59.2,63.9,63.4V99.6c-.8.1-1.6.2-2.4.3-11.8,33.6-33.5,62.4-61.5,83.1Z"/>
  <path class="cls-2" d="m708.7,39.5c0,85.9,69.6,155.5,155.5,155.5s155.5-69.6,155.5-155.5c0-13.6-1.8-26.9-5.1-39.5h-18.3c3.5,12.1,5.3,24.8,5.3,38,0,75.7-61.3,137-137,137s-137-61.3-137-137c0-13.2,1.9-25.9,5.3-38h-19.3c-3.2,12.6-4.9,25.9-4.9,39.5Z"/>
  <path class="cls-3" d="m1392.1,20c-.8,6.2-1.2,12.6-1.3,19v3c0,2.9.1,5.7.2,8.5.9,19.5,5.1,38.1,11.9,55.5,12.5,31.9,34.2,59.2,61.7,78.8,5.6,4,11.4,7.6,17.5,10.9,7.1,3.9,14.6,7.3,22.3,10.2,6.4,2.4,13,4.4,19.7,6.1,5.8,1.4,11.6,2.5,17.6,3.4,6.5.9,13.1,1.4,19.8,1.6,1.4,0,2.9.1,4.4.1,2,0,4,0,6.1-.1,7-.2,14-.9,20.8-1.9,7.1-1.1,14-2.6,20.8-4.5,7-2,13.8-4.4,20.4-7.2,5.8-2.4,11.3-5.2,16.8-8.2,6.5-3.6,12.8-7.7,18.8-12.1,28.1-20.7,49.7-49.5,61.5-83,.9-2.4,1.7-4.9,2.4-7.4V0h-17.6c3.3,12.6,5.1,25.9,5.1,39.5,0,85.9-69.6,155.5-155.5,155.5s-155.5-69.6-155.5-155.5c0-13.6,1.8-26.9,5.1-39.5h-19c-.3,1-.5,2-.7,3.1-1.6,5.5-2.6,11.2-3.3,16.9Z"/>
  <path class="cls-2" d="m1409.7,39.5c0,85.9,69.6,155.5,155.5,155.5s155.5-69.6,155.5-155.5c0-13.6-1.8-26.9-5.1-39.5h-19.2c4.1,12.9,6.2,26.7,6.2,41,0,75.7-61.3,137-137,137s-137-61.3-137-137c0-14.3,2.2-28.1,6.2-41h-20.2c-3.2,12.6-4.9,25.9-4.9,39.5Z"/>
  <path class="cls-2" d="m1059.7,39.5c0,85.9,69.6,155.5,155.5,155.5s155.5-69.6,155.5-155.5c0-13.6-1.8-26.9-5.1-39.5h-18.3c3.5,12.1,5.3,24.8,5.3,38,0,75.7-61.3,137-137,137s-137-61.3-137-137c0-13.2,1.9-25.9,5.3-38h-19.3c-3.2,12.6-4.9,25.9-4.9,39.5Z"/>
  <path class="cls-3" d="m0,98.5v3.8c.5,0,.9.1,1.4.1-.5-1.3-1-2.6-1.4-3.9Z"/>
  <path class="cls-3" d="m8.6,269c1-.2,1.9-.4,2.9-.7,6.2-1.5,12.1-3.6,17.8-6.3h0c2.9-1.4,5.7-2.9,8.5-4.6,5.6-3.4,10.8-7.4,15.5-11.8h0c12-11.3,21-25.7,25.7-42,.8-2.8,1.5-5.6,2-8.4-4.7-2.6-9.3-5.5-13.8-8.5-.1-.1-.2-.1-.3-.2,0,.2-.1.4-.1.6h0c-3.1,20.7-14.8,38.5-31.2,49.9-6.2,4.2-13,7.6-20.3,9.8-4.5,1.4-9.2,2.3-14.1,2.8-.4,0-.8.1-1.2.1v20.6c.4,0,.8-.1,1.1-.1,2.6-.3,5.1-.7,7.5-1.2Z"/>
  <path class="cls-2" d="m15.3,246.8c7.3-2.2,14.2-5.6,20.3-9.8,16.5-11.3,28.1-29.2,31.2-49.9h0c0-.2.1-.4.1-.6-4.5-3-8.8-6.3-12.9-9.7-4.6-3.9-9.1-8-13.3-12.3C23.9,147.3,10.5,126.7,1.9,103.8c-.2-.4-.3-.9-.5-1.4-.5-.1-.9-.1-1.4-.1v147.4c.4,0,.8-.1,1.2-.1,4.9-.5,9.6-1.4,14.1-2.8Z"/>
  <path class="cls-3" d="m340.7,37.5v8.25c-.01,3.05-.2,6.1-.4,9.15-.7,9.9-2.3,19.7-4.6,29.1-.3,1.17-.61,2.34-.93,3.5-1.39,5.07-2.98,10.02-4.77,14.9-4,10.85-9.05,21.18-15.01,30.88-.02.03-.04.07-.07.1l-4.57,7.06c-3.61,5.27-7.49,10.34-11.63,15.19l-2.04,2.35c-.28.31-.56.63-.85.95-.44.49-.88.98-1.33,1.47-.03.03-.06.07-.09.1h0c-1.17,1.27-2.43,2.63-3.7,3.9-.03.03-.07.07-.1.1-4.07,4.06-8.24,8.03-12.7,11.7-.42.34-.84.69-1.26,1.02-3.62,2.95-7.39,5.79-11.24,8.48-.8.5-1.6,1.1-2.4,1.6-4.7,3.1-9.5,6-14.4,8.7-1.5.8-2.9,1.6-4.4,2.3-5.4,2.7-11,5.1-16.7,7.3-4.4,1.7-9,3.2-13.6,4.5-1.2.4-2.4.7-3.6,1-6.2,1.7-12.7,3-19.2,3.9-4.3.6-8.7,1.1-13.1,1.4-2.5.2-5,.3-7.5.4-1.6.1-3.1.1-4.7.1h-3.7c-4.3-.1-8.6-.3-12.8-.7-2.3-.2-4.6-.5-6.9-.8-6.5-.8-12.9-2.1-19.1-3.6-.5-.11-1-.23-1.49-.35-.05-.01-.09-.02-.14-.03-1.44-.35-2.83-.73-4.23-1.14-.05-.01-.09-.02-.13-.04-.6-.17-1.2-.35-1.81-.54-4-1.2-7.9-2.5-11.7-4-6.4-2.4-12.5-5.2-18.5-8.3-1.5-.8-2.9-1.5-4.3-2.3-4.8-2.6-9.4-5.5-13.8-8.5-.1,0-.2-.1-.3-.2-4.4-3-8.8-6.3-12.9-9.7-4.6-3.9-9.1-8-13.3-12.3C23.9,147.3,10.5,126.6,1.9,103.7c-.2-.5-.3-.9-.5-1.4-.5-1.3-1-2.6-1.4-3.9V0h15.8c-2.71,10.33-4.41,21.15-4.93,32.2-.12,2.42-.17,4.85-.17,7.3,0,85.9,69.6,155.5,155.5,155.5,1.42,0,2.83-.02,4.23-.06,1.13-.03,2.26-.07,3.39-.12,1.72-.09,3.43-.2,5.14-.34.95-.07,1.9-.16,2.85-.25.13-.02.26-.03.38-.04,1.11-.11,2.21-.24,3.31-.38,4.07-.5,8.08-1.16,12.04-1.97.63-.13,1.27-.26,1.9-.4,9.45-2.05,18.57-4.97,27.29-8.66,1.16-.49,2.32-.99,3.47-1.51,7.13-3.22,13.97-6.97,20.47-11.18.97-.64,1.94-1.28,2.91-1.94.55-.37,1.09-.74,1.63-1.12.49-.35.97-.69,1.45-1.03.51-.37,1.02-.73,1.52-1.11,1.02-.73,2.02-1.49,3-2.26,1-.76,1.98-1.54,2.95-2.33.49-.39.97-.79,1.45-1.19.5-.41.99-.82,1.48-1.24.46-.4.92-.8,1.38-1.2.47-.41.94-.82,1.4-1.24.47-.42.93-.84,1.39-1.26.46-.42.92-.85,1.38-1.28.45-.42.91-.85,1.36-1.29.45-.43.9-.87,1.34-1.31.45-.43.9-.87,1.33-1.32.53-.53,1.05-1.07,1.57-1.61.48-.49.95-.99,1.42-1.48.56-.6,1.12-1.2,1.68-1.82.5-.55,1-1.11,1.49-1.67.5-.56.99-1.13,1.48-1.7.51-.59,1.02-1.19,1.52-1.79.46-.56.91-1.12,1.37-1.68.46-.56.91-1.14,1.37-1.71,2.89-3.68,5.62-7.5,8.18-11.44.33-.51.66-1.02.98-1.53,1.91-3.01,3.72-6.1,5.42-9.25.24-.44.47-.88.7-1.32.96-1.81,1.88-3.64,2.76-5.49.3-.63.6-1.26.89-1.9.31-.67.62-1.35.92-2.03.12-.25.23-.51.34-.78.51-1.15,1-2.31,1.48-3.48,1.44-3.53,2.76-7.13,3.94-10.79.61-1.89,1.19-3.8,1.73-5.72.27-.96.53-1.92.79-2.89.2-.79.41-1.59.6-2.39.08-.33.16-.66.24-1,.2-.82.38-1.64.56-2.46.22-.98.43-1.97.62-2.96.2-.98.39-1.98.56-2.97.18-1,.35-2,.51-3,.15-.95.3-1.91.43-2.86.01-.05.02-.1.02-.15.14-1.01.27-2.02.39-3.04.11-.88.21-1.77.3-2.66.12-1.16.22-2.32.31-3.49.07-.8.12-1.61.17-2.42.02-.29.04-.57.05-.86.06-.91.1-1.82.14-2.74.01-.12.01-.25.02-.38.03-.86.06-1.74.07-2.61.01-.16.01-.33.01-.5.02-.96.03-1.93.03-2.9,0-1.94-.04-3.88-.11-5.81-.02-.6-.05-1.2-.08-1.8-.04-.8-.08-1.59-.13-2.39-.01-.04-.01-.09-.01-.14-.11-1.65-.24-3.3-.4-4.94,0-.04,0-.08,0-.11-.14-1.41-.3-2.82-.48-4.22-.04-.28-.07-.56-.11-.83-.1-.78-.2-1.56-.32-2.33,0-.01-.01-.02,0-.03-.37-2.46-.78-4.9-1.26-7.32-.15-.8-.32-1.6-.49-2.39-.34-1.62-.71-3.22-1.1-4.82-.19-.79-.39-1.58-.6-2.37h19l.37,1.52c.37,1.52.73,3.08,1.03,4.58.15.7.3,1.4.44,2.1.14.7.28,1.4.4,2.1.26,1.39.51,2.79.74,4.18l.03.23,1.09,8.29c.27,2.16.48,4.33.63,6.5.2,2.65.32,5.31.37,8Z"/>
  <path class="cls-2" d="m10.7,39.5c0,85.9,69.6,155.5,155.5,155.5s155.5-69.6,155.5-155.5c0-13.6-1.8-26.9-5.1-39.5h-20.3c3.5,12.1,5.3,24.8,5.3,38,0,75.7-61.3,137-137,137S27.6,113.7,27.6,38c0-13.2,1.9-25.9,5.3-38H15.7c-3.3,12.6-5,25.9-5,39.5Z"/>
  <path class="cls-3" d="m1428.7,41c0,75.7,61.3,137,137,137s137-61.3,137-137c0-14.3-2.2-28.1-6.2-41h-20.6c4.4,12.3,6.8,25.6,6.8,39.5,0,64.9-52.6,117.5-117.5,117.5s-117.5-52.6-117.5-117.5c0-13.9,2.4-27.2,6.8-39.5h-19.6c-4,12.9-6.2,26.7-6.2,41Z"/>
  <path class="cls-3" d="m1078.7,38c0,75.7,61.3,137,137,137s137-61.3,137-137c0-13.2-1.9-25.9-5.3-38h-20.5c4.4,12.3,6.8,25.6,6.8,39.5,0,64.9-52.6,117.5-117.5,117.5s-117.5-52.6-117.5-117.5c0-13.9,2.4-27.2,6.8-39.5h-21.5c-3.5,12.1-5.3,24.8-5.3,38Z"/>
  <path class="cls-3" d="m727.7,38c0,75.7,61.3,137,137,137s137-61.3,137-137c0-13.2-1.9-25.9-5.3-38h-19.5c4.4,12.3,6.8,25.6,6.8,39.5,0,64.9-52.6,117.5-117.5,117.5s-117.5-52.6-117.5-117.5c0-13.9,2.4-27.2,6.8-39.5h-22.5c-3.5,12.1-5.3,24.8-5.3,38Z"/>
  <path class="cls-3" d="m377.7,38c0,75.7,61.3,137,137,137s137-61.3,137-137c0-13.2-1.9-25.9-5.3-38h-21.5c4.4,12.3,6.8,25.6,6.8,39.5,0,64.9-52.6,117.5-117.5,117.5s-117.5-52.6-117.5-117.5c0-13.9,2.4-27.2,6.8-39.5h-20.5c-3.5,12.1-5.3,24.8-5.3,38Z"/>
  <path class="cls-3" d="m27.7,38c0,75.7,61.3,137,137,137s137-61.3,137-137c0-13.2-1.9-25.9-5.3-38h-21.5c4.4,12.3,6.8,25.6,6.8,39.5,0,64.9-52.6,117.5-117.5,117.5S46.7,104.4,46.7,39.5c0-13.9,2.4-27.2,6.8-39.5h-20.5c-3.5,12.1-5.3,24.8-5.3,38Z"/>
  <path class="cls-2" d="m46.7,39.5c0,64.9,52.6,117.5,117.5,117.5s117.5-52.6,117.5-117.5c0-13.9-2.4-27.2-6.8-39.5h-28.4c7.2,13.2,11.2,28.4,11.2,44.5,0,51.6-41.9,93.5-93.5,93.5s-93.5-41.9-93.5-93.5c0-16.1,4.1-31.3,11.2-44.5h-28.4c-4.4,12.3-6.8,25.6-6.8,39.5Z"/>
  <path class="cls-2" d="m396.7,39.5c0,64.9,52.6,117.5,117.5,117.5s117.5-52.6,117.5-117.5c0-13.9-2.4-27.2-6.8-39.5h-28.4c7.2,13.2,11.2,28.4,11.2,44.5,0,51.6-41.9,93.5-93.5,93.5s-93.5-41.9-93.5-93.5c0-16.1,4.1-31.3,11.2-44.5h-28.4c-4.4,12.3-6.8,25.6-6.8,39.5Z"/>
  <path class="cls-2" d="m748.7,39.5c0,64.9,52.6,117.5,117.5,117.5s117.5-52.6,117.5-117.5c0-13.9-2.4-27.2-6.8-39.5h-30.4c7.2,13.2,11.2,28.4,11.2,44.5,0,51.6-41.9,93.5-93.5,93.5s-93.5-41.9-93.5-93.5c0-16.1,4.1-31.3,11.2-44.5h-26.4c-4.4,12.3-6.8,25.6-6.8,39.5Z"/>
  <path class="cls-2" d="m1098.7,39.5c0,64.9,52.6,117.5,117.5,117.5s117.5-52.6,117.5-117.5c0-13.9-2.4-27.2-6.8-39.5h-29.4c7.2,13.2,11.2,28.4,11.2,44.5,0,51.6-41.9,93.5-93.5,93.5s-93.5-41.9-93.5-93.5c0-16.1,4.1-31.3,11.2-44.5h-27.4c-4.4,12.3-6.8,25.6-6.8,39.5Z"/>
  <path class="cls-2" d="m1447.7,39.5c0,64.9,52.6,117.5,117.5,117.5s117.5-52.6,117.5-117.5c0-13.9-2.4-27.2-6.8-39.5h-28.4c7.2,13.2,11.2,28.4,11.2,44.5,0,51.6-41.9,93.5-93.5,93.5s-93.5-41.9-93.5-93.5c0-16.1,4.1-31.3,11.2-44.5h-28.4c-4.4,12.3-6.8,25.6-6.8,39.5Z"/>
  <path class="cls-3" d="m70.7,44.5c0,51.6,41.9,93.5,93.5,93.5s93.5-41.9,93.5-93.5c0-16.1-4.1-31.3-11.2-44.5h-24.3c9.1,12.3,14.5,27.5,14.5,44,0,40.9-33.1,74-74,74s-74-33.1-74-74c0-16.5,5.4-31.7,14.5-44h-21.3c-7.1,13.2-11.2,28.4-11.2,44.5Z"/>
  <path class="cls-3" d="m420.7,44.5c0,51.6,41.9,93.5,93.5,93.5s93.5-41.9,93.5-93.5c0-16.1-4.1-31.3-11.2-44.5h-22.3c9.1,12.3,14.5,27.5,14.5,44,0,40.9-33.1,74-74,74s-74-33.1-74-74c0-16.5,5.4-31.7,14.5-44h-23.3c-7.1,13.2-11.2,28.4-11.2,44.5Z"/>
  <path class="cls-3" d="m770.7,44.5c0,51.6,41.9,93.5,93.5,93.5s93.5-41.9,93.5-93.5c0-16.1-4.1-31.3-11.2-44.5h-25.3c9.1,12.3,14.5,27.5,14.5,44,0,40.9-33.1,74-74,74s-74-33.1-74-74c0-16.5,5.4-31.7,14.5-44h-20.3c-7.1,13.2-11.2,28.4-11.2,44.5Z"/>
  <path class="cls-3" d="m1121.7,44.5c0,51.6,41.9,93.5,93.5,93.5s93.5-41.9,93.5-93.5c0-16.1-4.1-31.3-11.2-44.5h-23.3c9.1,12.3,14.5,27.5,14.5,44,0,40.9-33.1,74-74,74s-74-33.1-74-74c0-16.5,5.4-31.7,14.5-44h-22.3c-7.1,13.2-11.2,28.4-11.2,44.5Z"/>
  <path class="cls-3" d="m1471.7,44.5c0,51.6,41.9,93.5,93.5,93.5s93.5-41.9,93.5-93.5c0-16.1-4.1-31.3-11.2-44.5h-22.3c9.1,12.3,14.5,27.5,14.5,44,0,40.9-33.1,74-74,74s-74-33.1-74-74c0-16.5,5.4-31.7,14.5-44h-23.3c-7.1,13.2-11.2,28.4-11.2,44.5Z"/>
  <path class="cls-2" d="m1140.7,44c0,40.9,33.1,74,74,74s74-33.1,74-74c0-16.5-5.4-31.7-14.5-44h-119c-9.1,12.3-14.5,27.5-14.5,44Z"/>
  <path class="cls-2" d="m1491.7,44c0,40.9,33.1,74,74,74s74-33.1,74-74c0-16.5-5.4-31.7-14.5-44h-119c-9.1,12.3-14.5,27.5-14.5,44Z"/>
  <path class="cls-2" d="m88.7,44c0,40.9,33.1,74,74,74s74-33.1,74-74c0-16.5-5.4-31.7-14.5-44h-119c-9.1,12.3-14.5,27.5-14.5,44Z"/>
  <path class="cls-2" d="m440.7,44c0,40.9,33.1,74,74,74s74-33.1,74-74c0-16.5-5.4-31.7-14.5-44h-119c-9.1,12.3-14.5,27.5-14.5,44Z"/>
  <path class="cls-2" d="m787.7,44c0,40.9,33.1,74,74,74s74-33.1,74-74c0-16.5-5.4-31.7-14.5-44h-119c-9.1,12.3-14.5,27.5-14.5,44Z"/>
</svg>